ToneOZ-Quicksnow-W300.ufo
<glyph name="exclam" format="2">
  <unicode hex="0021" />
  <advance width="158" />
  <outline>
    <contour>
      <point x="79" y="187" type="qcurve" />
      <point x="65" y="187" />
      <point x="64" y="203" type="qcurve" />
      <point x="59" y="669" type="line" />
      <point x="59" y="683" />
      <point x="66" y="700" />
      <point x="79" y="700" type="qcurve" />
      <point x="92" y="700" />
      <point x="99" y="683" />
      <point x="99" y="669" type="qcurve" />
      <point x="94" y="203" type="line" />
      <point x="93" y="187" />
    </contour>
    <contour>
      <point x="77" y="0" type="line" />
      <point x="64" y="0" />
      <point x="50" y="18" />
      <point x="50" y="31" type="qcurve" />
      <point x="50" y="54" type="line" />
      <point x="50" y="68" />
      <point x="64" y="85" />
      <point x="77" y="85" type="qcurve" />
      <point x="81" y="85" type="line" />
      <point x="95" y="85" />
      <point x="108" y="68" />
      <point x="108" y="54" type="qcurve" />
      <point x="108" y="31" type="line" />
      <point x="108" y="18" />
      <point x="95" y="0" />
      <point x="81" y="0" type="qcurve" />
    </contour>
  </outline>
</glyph>
<glyph name="quotedbl" format="2">
  <unicode hex="0022" />
  <advance width="367" />
  <outline>
    <contour>
      <point x="76" y="681" type="line" />
      <point x="79" y="700" />
      <point x="98" y="700" type="qcurve" />
      <point x="131" y="700" type="line" />
      <point x="139" y="700" />
      <point x="142" y="689" />
      <point x="140" y="681" type="qcurve" />
      <point x="78" y="463" type="line" />
      <point x="74" y="446" />
      <point x="55" y="446" type="qcurve" />
      <point x="44" y="446" />
      <point x="47" y="467" type="qcurve" />
    </contour>
    <contour>
      <point x="256" y="681" type="line" />
      <point x="259" y="700" />
      <point x="278" y="700" type="qcurve" />
      <point x="311" y="700" type="line" />
      <point x="319" y="699" />
      <point x="322" y="689" />
      <point x="320" y="681" type="qcurve" />
      <point x="258" y="463" type="line" />
      <point x="254" y="446" />
      <point x="235" y="446" type="qcurve" />
      <point x="224" y="446" />
      <point x="227" y="467" type="qcurve" />
    </contour>
  </outline>
</glyph>
<glyph name="numbersign" format="2">
  <unicode hex="0023" />
  <advance width="641" />
  <outline>
    <contour>
      <point x="137" y="0" type="qcurve" />
      <point x="125" y="0" />
      <point x="112" y="19" />
      <point x="114" y="32" type="qcurve" />
      <point x="226" y="680" type="line" />
      <point x="228" y="689" />
      <point x="240" y="700" />
      <point x="249" y="700" type="qcurve" />
      <point x="261" y="700" />
      <point x="274" y="682" />
      <point x="272" y="669" type="qcurve" />
      <point x="160" y="20" type="line" />
      <point x="159" y="11" />
      <point x="146" y="0" />
    </contour>
    <contour>
      <point x="86" y="470" type="line" />
      <point x="75" y="470" />
      <point x="60" y="485" />
      <point x="60" y="495" type="qcurve" />
      <point x="60" y="505" />
      <point x="75" y="517" />
      <point x="85" y="517" type="qcurve" />
      <point x="596" y="517" type="line" />
      <point x="607" y="517" />
      <point x="621" y="503" />
      <point x="621" y="492" type="qcurve" />
      <point x="621" y="482" />
      <point x="607" y="470" />
      <point x="596" y="470" type="qcurve" />
    </contour>
    <contour>
      <point x="392" y="0" type="qcurve" />
      <point x="380" y="0" />
      <point x="367" y="19" />
      <point x="369" y="32" type="qcurve" />
      <point x="481" y="680" type="line" />
      <point x="483" y="689" />
      <point x="495" y="700" />
      <point x="504" y="700" type="qcurve" />
      <point x="516" y="700" />
      <point x="529" y="682" />
      <point x="527" y="669" type="qcurve" />
      <point x="415" y="20" type="line" />
      <point x="414" y="11" />
      <point x="401" y="0" />
    </contour>
    <contour>
      <point x="45" y="187" type="line" />
      <point x="35" y="187" />
      <point x="20" y="202" />
      <point x="20" y="212" type="qcurve" />
      <point x="20" y="222" />
      <point x="35" y="234" />
      <point x="45" y="234" type="qcurve" />
      <point x="556" y="234" type="line" />
      <point x="567" y="234" />
      <point x="581" y="220" />
      <point x="581" y="209" type="qcurve" />
      <point x="581" y="199" />
      <point x="567" y="187" />
      <point x="556" y="187" type="qcurve" />
    </contour>
  </outline>
</glyph>
<glyph name="percent" format="2">
  <unicode hex="0025" />
  <advance width="763" />
  <outline>
    <contour>
      <point x="177" y="350" type="qcurve" />
      <point x="133" y="350" />
      <point x="77" y="400" />
      <point x="50" y="481" />
      <point x="50" y="527" type="qcurve" />
      <point x="50" y="575" />
      <point x="77" y="658" />
      <point x="135" y="708" />
      <point x="179" y="708" type="qcurve" />
      <point x="223" y="708" />
      <point x="280" y="658" />
      <point x="307" y="576" />
      <point x="307" y="529" type="qcurve" />
      <point x="307" y="482" />
      <point x="279" y="400" />
      <point x="222" y="350" />
    </contour>
    <contour>
      <point x="179" y="390" type="qcurve" />
      <point x="226" y="390" />
      <point x="265" y="469" />
      <point x="265" y="527" type="qcurve" />
      <point x="265" y="589" />
      <point x="221" y="668" />
      <point x="177" y="668" type="qcurve" />
      <point x="131" y="668" />
      <point x="92" y="587" />
      <point x="92" y="529" type="qcurve" />
      <point x="92" y="468" />
      <point x="136" y="390" />
    </contour>
    <contour>
      <point x="583" y="-8" type="qcurve" />
      <point x="539" y="-8" />
      <point x="482" y="42" />
      <point x="455" y="123" />
      <point x="455" y="169" type="qcurve" />
      <point x="455" y="217" />
      <point x="483" y="300" />
      <point x="541" y="350" />
      <point x="585" y="350" type="qcurve" />
      <point x="629" y="350" />
      <point x="686" y="300" />
      <point x="713" y="218" />
      <point x="713" y="171" type="qcurve" />
      <point x="713" y="124" />
      <point x="685" y="42" />
      <point x="628" y="-8" />
    </contour>
    <contour>
      <point x="585" y="32" type="qcurve" />
      <point x="632" y="32" />
      <point x="671" y="111" />
      <point x="671" y="169" type="qcurve" />
      <point x="671" y="231" />
      <point x="627" y="310" />
      <point x="583" y="310" type="qcurve" />
      <point x="537" y="310" />
      <point x="497" y="229" />
      <point x="497" y="171" type="qcurve" />
      <point x="497" y="110" />
      <point x="542" y="32" />
    </contour>
    <contour>
      <point x="158" y="-3" type="qcurve" />
      <point x="149" y="-3" />
      <point x="138" y="7" />
      <point x="138" y="16" type="qcurve" />
      <point x="138" y="22" />
      <point x="141" y="28" type="qcurve" />
      <point x="579" y="694" type="line" />
      <point x="585" y="703" />
      <point x="595" y="703" type="qcurve" />
      <point x="604" y="703" />
      <point x="615" y="693" />
      <point x="615" y="684" type="qcurve" />
      <point x="615" y="678" />
      <point x="612" y="672" type="qcurve" />
      <point x="174" y="6" type="line" />
      <point x="168" y="-3" />
    </contour>
  </outline>
</glyph>
<glyph name="ampersand" format="2">
  <unicode hex="0026" />
  <advance width="669" />
  <outline>
    <contour>
      <point x="269" y="-10" type="qcurve" />
      <point x="198" y="-10" />
      <point x="90" y="57" />
      <point x="30" y="163" />
      <point x="30" y="221" type="qcurve" />
      <point x="30" y="263" />
      <point x="65" y="344" />
      <point x="136" y="410" />
      <point x="191" y="428" type="qcurve" />
      <point x="222" y="397" type="line" />
      <point x="142" y="379" />
      <point x="72" y="282" />
      <point x="72" y="226" type="qcurve" />
      <point x="72" y="176" />
      <point x="118" y="86" />
      <point x="207" y="30" />
      <point x="269" y="30" type="qcurve" />
      <point x="340" y="30" />
      <point x="440" y="72" />
      <point x="506" y="144" />
      <point x="546" y="233" />
      <point x="555" y="279" type="qcurve" />
      <point x="557" y="287" />
      <point x="568" y="296" />
      <point x="576" y="296" type="qcurve" />
      <point x="585" y="296" />
      <point x="597" y="283" />
      <point x="595" y="273" type="qcurve" />
      <point x="587" y="221" />
      <point x="539" y="120" />
      <point x="459" y="38" />
      <point x="344" y="-10" />
    </contour>
    <contour>
      <point x="624" y="4" type="qcurve" />
      <point x="621" y="4" />
      <point x="615" y="7" />
      <point x="612" y="8" type="qcurve" />
      <point x="554" y="51" />
      <point x="443" y="135" />
      <point x="328" y="241" />
      <point x="262" y="316" type="qcurve" />
      <point x="227" y="356" />
      <point x="171" y="437" />
      <point x="138" y="516" />
      <point x="138" y="553" type="qcurve" />
      <point x="138" y="599" />
      <point x="181" y="670" />
      <point x="261" y="710" />
      <point x="316" y="710" type="qcurve" />
      <point x="389" y="710" />
      <point x="477" y="653" />
      <point x="496" y="616" type="qcurve" />
      <point x="497" y="615" />
      <point x="500" y="608" />
      <point x="500" y="604" type="qcurve" />
      <point x="500" y="599" />
      <point x="489" y="586" />
      <point x="480" y="586" type="qcurve" />
      <point x="475" y="586" />
      <point x="466" y="591" />
      <point x="463" y="595" type="qcurve" />
      <point x="444" y="625" />
      <point x="377" y="670" />
      <point x="316" y="670" type="qcurve" />
      <point x="249" y="670" />
      <point x="180" y="605" />
      <point x="180" y="551" type="qcurve" />
      <point x="180" y="521" />
      <point x="210" y="449" />
      <point x="262" y="373" />
      <point x="295" y="336" type="qcurve" />
      <point x="338" y="287" />
      <point x="430" y="199" />
      <point x="520" y="124" />
      <point x="602" y="64" />
      <point x="635" y="41" type="qcurve" />
      <point x="640" y="38" />
      <point x="644" y="30" />
      <point x="644" y="25" type="qcurve" />
      <point x="644" y="18" />
      <point x="633" y="4" />
    </contour>
  </outline>
</glyph>
<glyph name="quotesingle" format="2">
  <unicode hex="0027" />
  <advance width="187" />
  <outline>
    <contour>
      <point x="76" y="681" type="line" />
      <point x="79" y="700" />
      <point x="98" y="700" type="qcurve" />
      <point x="131" y="700" type="line" />
      <point x="139" y="699" />
      <point x="142" y="689" />
      <point x="140" y="681" type="qcurve" />
      <point x="78" y="463" type="line" />
      <point x="74" y="446" />
      <point x="55" y="446" type="qcurve" />
      <point x="44" y="446" />
      <point x="47" y="467" type="qcurve" />
    </contour>
  </outline>
</glyph>
<glyph name="parenleft" format="2">
  <unicode hex="0028" />
  <advance width="379" />
  <outline>
    <contour>
      <point x="331" y="-195" type="qcurve" />
      <point x="326" y="-195" />
      <point x="320" y="-192" type="qcurve" />
      <point x="233" y="-152" />
      <point x="118" y="-12" />
      <point x="60" y="164" />
      <point x="60" y="256" type="qcurve" />
      <point x="60" y="349" />
      <point x="121" y="518" />
      <point x="238" y="658" />
      <point x="321" y="705" type="qcurve" />
      <point x="326" y="708" />
      <point x="331" y="708" type="qcurve" />
      <point x="339" y="708" />
      <point x="349" y="697" />
      <point x="349" y="689" type="qcurve" />
      <point x="349" y="678" />
      <point x="339" y="672" type="qcurve" />
      <point x="264" y="632" />
      <point x="157" y="500" />
      <point x="100" y="339" />
      <point x="100" y="256" type="qcurve" />
      <point x="100" y="173" />
      <point x="155" y="10" />
      <point x="262" y="-122" />
      <point x="339" y="-160" type="qcurve" />
      <point x="348" y="-164" />
      <point x="348" y="-177" type="qcurve" />
      <point x="348" y="-184" />
      <point x="340" y="-195" />
    </contour>
  </outline>
</glyph>
<glyph name="parenright" format="2">
  <unicode hex="0029" />
  <advance width="379" />
  <outline>
    <contour>
      <point x="48" y="-194" type="qcurve" />
      <point x="41" y="-194" />
      <point x="30" y="-183" />
      <point x="30" y="-175" type="qcurve" />
      <point x="30" y="-164" />
      <point x="40" y="-158" type="qcurve" />
      <point x="115" y="-118" />
      <point x="222" y="14" />
      <point x="279" y="175" />
      <point x="279" y="258" type="qcurve" />
      <point x="279" y="341" />
      <point x="224" y="503" />
      <point x="117" y="636" />
      <point x="40" y="674" type="qcurve" />
      <point x="31" y="679" />
      <point x="31" y="691" type="qcurve" />
      <point x="31" y="699" />
      <point x="39" y="709" />
      <point x="48" y="709" type="qcurve" />
      <point x="53" y="709" />
      <point x="59" y="706" type="qcurve" />
      <point x="146" y="666" />
      <point x="261" y="526" />
      <point x="319" y="351" />
      <point x="319" y="258" type="qcurve" />
      <point x="319" y="166" />
      <point x="258" y="-5" />
      <point x="141" y="-145" />
      <point x="58" y="-191" type="qcurve" />
      <point x="54" y="-194" />
    </contour>
  </outline>
</glyph>
<glyph name="asterisk" format="2">
  <unicode hex="002A" />
  <advance width="291" />
  <outline>
    <contour>
      <point x="145" y="406" type="qcurve" />
      <point x="137" y="406" />
      <point x="126" y="419" />
      <point x="127" y="428" type="qcurve" />
      <point x="133" y="525" type="line" />
      <point x="134" y="528" />
      <point x="130" y="531" />
      <point x="128" y="529" type="qcurve" />
      <point x="46" y="473" type="line" />
      <point x="39" y="468" />
      <point x="22" y="472" />
      <point x="17" y="480" type="qcurve" />
      <point x="13" y="488" />
      <point x="18" y="504" />
      <point x="27" y="508" type="qcurve" />
      <point x="117" y="551" type="line" />
      <point x="120" y="552" />
      <point x="120" y="556" />
      <point x="117" y="557" type="qcurve" />
      <point x="27" y="600" type="line" />
      <point x="18" y="605" />
      <point x="13" y="622" />
      <point x="18" y="630" type="qcurve" />
      <point x="23" y="638" />
      <point x="39" y="640" />
      <point x="46" y="635" type="qcurve" />
      <point x="128" y="579" type="line" />
      <point x="130" y="578" />
      <point x="134" y="580" />
      <point x="133" y="583" type="qcurve" />
      <point x="127" y="680" type="line" />
      <point x="126" y="689" />
      <point x="138" y="702" />
      <point x="147" y="702" type="qcurve" />
      <point x="155" y="702" />
      <point x="166" y="689" />
      <point x="165" y="680" type="qcurve" />
      <point x="159" y="583" type="line" />
      <point x="158" y="580" />
      <point x="162" y="578" />
      <point x="164" y="579" type="qcurve" />
      <point x="246" y="635" type="line" />
      <point x="254" y="640" />
      <point x="271" y="636" />
      <point x="275" y="628" type="qcurve" />
      <point x="280" y="621" />
      <point x="274" y="605" />
      <point x="265" y="600" type="qcurve" />
      <point x="175" y="557" type="line" />
      <point x="172" y="556" />
      <point x="172" y="552" />
      <point x="175" y="551" type="qcurve" />
      <point x="265" y="508" type="line" />
      <point x="274" y="504" />
      <point x="280" y="488" />
      <point x="275" y="480" type="qcurve" />
      <point x="271" y="472" />
      <point x="254" y="468" />
      <point x="246" y="473" type="qcurve" />
      <point x="164" y="529" type="line" />
      <point x="162" y="531" />
      <point x="158" y="528" />
      <point x="159" y="525" type="qcurve" />
      <point x="165" y="428" type="line" />
      <point x="166" y="419" />
      <point x="154" y="406" />
    </contour>
  </outline>
</glyph>
<glyph name="plus" format="2">
  <unicode hex="002B" />
  <advance width="556" />
  <outline>
    <contour>
      <point x="71" y="313" type="line" />
      <point x="62" y="313" />
      <point x="50" y="325" />
      <point x="50" y="334" type="qcurve" />
      <point x="50" y="342" />
      <point x="62" y="353" />
      <point x="71" y="353" type="qcurve" />
      <point x="485" y="353" type="line" />
      <point x="494" y="353" />
      <point x="506" y="341" />
      <point x="506" y="332" type="qcurve" />
      <point x="506" y="325" />
      <point x="494" y="313" />
      <point x="485" y="313" type="qcurve" />
    </contour>
    <contour>
      <point x="278" y="90" type="qcurve" />
      <point x="269" y="90" />
      <point x="257" y="102" />
      <point x="257" y="111" type="qcurve" />
      <point x="257" y="546" type="line" />
      <point x="257" y="556" />
      <point x="269" y="568" />
      <point x="278" y="568" type="qcurve" />
      <point x="288" y="568" />
      <point x="299" y="556" />
      <point x="299" y="547" type="qcurve" />
      <point x="299" y="112" type="line" />
      <point x="299" y="102" />
      <point x="287" y="90" />
    </contour>
  </outline>
</glyph>
<glyph name="comma" format="2">
  <unicode hex="002C" />
  <advance width="167" />
  <outline>
    <contour>
      <point x="139" y="-13" type="qcurve" />
      <point x="139" y="-38" />
      <point x="109" y="-84" />
      <point x="68" y="-113" />
      <point x="49" y="-113" type="qcurve" />
      <point x="42" y="-113" />
      <point x="31" y="-106" />
      <point x="31" y="-95" type="qcurve" />
      <point x="31" y="-84" />
      <point x="46" y="-82" />
      <point x="62" y="-74" type="qcurve" />
      <point x="80" y="-65" />
      <point x="99" y="-39" />
      <point x="99" y="-23" type="qcurve" />
      <point x="99" y="-9" />
      <point x="86" y="4" />
      <point x="78" y="4" type="qcurve" />
      <point x="71" y="4" />
      <point x="57" y="-1" />
      <point x="52" y="-5" type="qcurve" />
      <point x="48" y="0" />
      <point x="43" y="12" />
      <point x="44" y="18" type="qcurve" />
      <point x="46" y="30" />
      <point x="72" y="48" />
      <point x="88" y="48" type="qcurve" />
      <point x="110" y="48" />
      <point x="139" y="9" />
    </contour>
  </outline>
</glyph>
<glyph name="hyphen" format="2">
  <unicode hex="002D" />
  <advance width="388" />
  <outline>
    <contour>
      <point x="79" y="295" type="line" />
      <point x="71" y="295" />
      <point x="60" y="307" />
      <point x="60" y="316" type="qcurve" />
      <point x="60" y="324" />
      <point x="71" y="335" />
      <point x="79" y="335" type="qcurve" />
      <point x="309" y="335" type="line" />
      <point x="317" y="335" />
      <point x="328" y="323" />
      <point x="328" y="314" type="qcurve" />
      <point x="328" y="306" />
      <point x="317" y="295" />
      <point x="309" y="295" type="qcurve" />
    </contour>
  </outline>
</glyph>
<glyph name="period" format="2">
  <unicode hex="002E" />
  <advance width="158" />
  <outline>
    <contour>
      <point x="77" y="0" type="line" />
      <point x="64" y="0" />
      <point x="50" y="18" />
      <point x="50" y="31" type="qcurve" />
      <point x="50" y="54" type="line" />
      <point x="50" y="68" />
      <point x="64" y="85" />
      <point x="77" y="85" type="qcurve" />
      <point x="81" y="85" type="line" />
      <point x="95" y="85" />
      <point x="108" y="68" />
      <point x="108" y="54" type="qcurve" />
      <point x="108" y="31" type="line" />
      <point x="108" y="18" />
      <point x="95" y="0" />
      <point x="81" y="0" type="qcurve" />
    </contour>
  </outline>
</glyph>
<glyph name="slash" format="2">
  <unicode hex="002F" />
  <advance width="337" />
  <outline>
    <contour>
      <point x="51" y="-46" type="line" />
      <point x="49" y="-53" />
      <point x="41" y="-57" type="qcurve" />
      <point x="33" y="-61" />
      <point x="25" y="-58" type="qcurve" />
      <point x="17" y="-55" />
      <point x="14" y="-47" type="qcurve" />
      <point x="10" y="-40" />
      <point x="13" y="-32" type="qcurve" />
      <point x="286" y="717" type="line" />
      <point x="289" y="724" />
      <point x="303" y="732" />
      <point x="312" y="729" type="qcurve" />
      <point x="320" y="726" />
      <point x="323" y="718" type="qcurve" />
      <point x="326" y="711" />
      <point x="323" y="703" type="qcurve" />
    </contour>
  </outline>
</glyph>
<glyph name="zero" format="2">
  <unicode hex="0030" />
  <advance width="588" />
  <outline>
    <contour>
      <point x="294" y="-10" type="qcurve" />
      <point x="215" y="-10" />
      <point x="111" y="87" />
      <point x="60" y="251" />
      <point x="60" y="350" type="qcurve" />
      <point x="60" y="450" />
      <point x="111" y="613" />
      <point x="215" y="710" />
      <point x="294" y="710" type="qcurve" />
      <point x="374" y="710" />
      <point x="477" y="613" />
      <point x="528" y="450" />
      <point x="528" y="350" type="qcurve" />
      <point x="528" y="251" />
      <point x="477" y="87" />
      <point x="374" y="-10" />
    </contour>
    <contour>
      <point x="294" y="32" type="qcurve" />
      <point x="358" y="32" />
      <point x="443" y="114" />
      <point x="486" y="258" />
      <point x="486" y="350" type="qcurve" />
      <point x="486" y="443" />
      <point x="443" y="587" />
      <point x="358" y="668" />
      <point x="294" y="668" type="qcurve" />
      <point x="230" y="668" />
      <point x="145" y="587" />
      <point x="102" y="443" />
      <point x="102" y="350" type="qcurve" />
      <point x="102" y="258" />
      <point x="145" y="114" />
      <point x="230" y="32" />
    </contour>
  </outline>
</glyph>
<glyph name="one" format="2">
  <unicode hex="0031" />
  <advance width="363" />
  <outline>
    <contour>
      <point x="222" y="0" type="qcurve" />
      <point x="213" y="0" />
      <point x="201" y="12" />
      <point x="201" y="20" type="qcurve" />
      <point x="201" y="654" type="line" />
      <point x="211" y="648" type="line" />
      <point x="58" y="547" type="line" />
      <point x="52" y="543" />
      <point x="47" y="543" type="qcurve" />
      <point x="38" y="543" />
      <point x="25" y="558" />
      <point x="25" y="565" type="qcurve" />
      <point x="25" y="576" />
      <point x="36" y="582" type="qcurve" />
      <point x="211" y="697" type="line" />
      <point x="216" y="700" />
      <point x="224" y="701" />
      <point x="228" y="700" type="qcurve" />
      <point x="235" y="699" />
      <point x="243" y="688" />
      <point x="243" y="680" type="qcurve" />
      <point x="243" y="20" type="line" />
      <point x="243" y="12" />
      <point x="231" y="0" />
    </contour>
  </outline>
</glyph>
<glyph name="two" format="2">
  <unicode hex="0032" />
  <advance width="549" />
  <outline>
    <contour>
      <point x="479" y="40" type="line" />
      <point x="487" y="40" />
      <point x="499" y="28" />
      <point x="499" y="20" type="qcurve" />
      <point x="499" y="11" />
      <point x="487" y="0" />
      <point x="479" y="0" type="qcurve" />
      <point x="93" y="0" type="line" />
      <point x="84" y="0" />
      <point x="68" y="9" />
      <point x="68" y="21" type="qcurve" />
      <point x="68" y="27" />
      <point x="73" y="34" type="qcurve" />
      <point x="308" y="296" type="line" />
      <point x="370" y="363" />
      <point x="429" y="470" />
      <point x="429" y="513" type="qcurve" />
      <point x="429" y="584" />
      <point x="341" y="670" />
      <point x="267" y="670" type="qcurve" />
      <point x="232" y="670" />
      <point x="164" y="642" />
      <point x="113" y="596" />
      <point x="101" y="568" type="qcurve" />
      <point x="97" y="559" />
      <point x="88" y="552" />
      <point x="80" y="552" type="qcurve" />
      <point x="72" y="552" />
      <point x="60" y="561" />
      <point x="60" y="568" type="qcurve" />
      <point x="60" y="572" />
      <point x="62" y="579" />
      <point x="65" y="586" type="qcurve" />
      <point x="81" y="619" />
      <point x="146" y="675" />
      <point x="229" y="710" />
      <point x="270" y="710" type="qcurve" />
      <point x="332" y="710" />
      <point x="423" y="662" />
      <point x="473" y="576" />
      <point x="473" y="517" type="qcurve" />
      <point x="473" y="466" />
      <point x="409" y="346" />
      <point x="341" y="272" type="qcurve" />
      <point x="126" y="28" type="line" />
      <point x="117" y="40" type="line" />
    </contour>
  </outline>
</glyph>
<glyph name="three" format="2">
  <unicode hex="0033" />
  <advance width="519" />
  <outline>
    <contour>
      <point x="81" y="90" type="qcurve" />
      <point x="85" y="90" />
      <point x="93" y="87" />
      <point x="99" y="80" type="qcurve" />
      <point x="121" y="56" />
      <point x="183" y="32" />
      <point x="222" y="32" type="qcurve" />
      <point x="277" y="32" />
      <point x="366" y="80" />
      <point x="419" y="166" />
      <point x="419" y="221" type="qcurve" />
      <point x="419" y="285" />
      <point x="361" y="364" />
      <point x="273" y="401" />
      <point x="227" y="401" type="qcurve" />
      <point x="220" y="401" />
      <point x="202" y="400" />
      <point x="187" y="398" />
      <point x="186" y="398" type="qcurve" />
      <point x="177" y="398" />
      <point x="166" y="410" />
      <point x="166" y="420" type="qcurve" />
      <point x="166" y="424" />
      <point x="170" y="432" />
      <point x="174" y="437" type="qcurve" />
      <point x="386" y="669" type="line" />
      <point x="392" y="655" type="line" />
      <point x="70" y="655" type="line" />
      <point x="62" y="655" />
      <point x="50" y="667" />
      <point x="50" y="675" type="qcurve" />
      <point x="50" y="684" />
      <point x="62" y="695" />
      <point x="70" y="695" type="qcurve" />
      <point x="416" y="695" type="line" />
      <point x="429" y="695" />
      <point x="437" y="678" />
      <point x="437" y="674" type="qcurve" />
      <point x="437" y="670" />
      <point x="434" y="663" />
      <point x="430" y="659" type="qcurve" />
      <point x="219" y="427" type="line" />
      <point x="199" y="433" type="line" />
      <point x="199" y="436" />
      <point x="232" y="442" />
      <point x="242" y="442" type="qcurve" />
      <point x="295" y="442" />
      <point x="396" y="394" />
      <point x="461" y="296" />
      <point x="461" y="221" type="qcurve" />
      <point x="461" y="152" />
      <point x="395" y="48" />
      <point x="286" y="-10" />
      <point x="222" y="-10" type="qcurve" />
      <point x="179" y="-10" />
      <point x="97" y="21" />
      <point x="66" y="54" type="qcurve" />
      <point x="63" y="57" />
      <point x="60" y="64" />
      <point x="60" y="68" type="qcurve" />
      <point x="60" y="76" />
      <point x="72" y="90" />
    </contour>
  </outline>
</glyph>
<glyph name="four" format="2">
  <unicode hex="0034" />
  <advance width="506" />
  <outline>
    <contour>
      <point x="360" y="0" type="qcurve" />
      <point x="351" y="0" />
      <point x="340" y="12" />
      <point x="340" y="20" type="qcurve" />
      <point x="340" y="645" type="line" />
      <point x="351" y="637" type="line" />
      <point x="65" y="252" type="line" />
      <point x="62" y="263" type="line" />
      <point x="456" y="263" type="line" />
      <point x="464" y="263" />
      <point x="476" y="252" />
      <point x="476" y="244" type="qcurve" />
      <point x="476" y="236" />
      <point x="464" y="225" />
      <point x="456" y="225" type="qcurve" />
      <point x="35" y="225" type="line" />
      <point x="26" y="225" />
      <point x="15" y="239" />
      <point x="15" y="246" type="qcurve" />
      <point x="15" y="254" />
      <point x="20" y="259" type="qcurve" />
      <point x="343" y="692" type="line" />
      <point x="348" y="698" />
      <point x="359" y="700" />
      <point x="360" y="700" type="qcurve" />
      <point x="369" y="700" />
      <point x="380" y="688" />
      <point x="380" y="680" type="qcurve" />
      <point x="380" y="20" type="line" />
      <point x="380" y="12" />
      <point x="368" y="0" />
    </contour>
  </outline>
</glyph>
<glyph name="five" format="2">
  <unicode hex="0035" />
  <advance width="535" />
  <outline>
    <contour>
      <point x="232" y="1" type="qcurve" />
      <point x="189" y="1" />
      <point x="107" y="29" />
      <point x="73" y="57" type="qcurve" />
      <point x="69" y="60" />
      <point x="65" y="68" />
      <point x="65" y="72" type="qcurve" />
      <point x="65" y="79" />
      <point x="77" y="95" />
      <point x="85" y="95" type="qcurve" />
      <point x="93" y="95" />
      <point x="99" y="89" type="qcurve" />
      <point x="128" y="65" />
      <point x="197" y="41" />
      <point x="232" y="41" type="qcurve" />
      <point x="295" y="41" />
      <point x="389" y="90" />
      <point x="440" y="180" />
      <point x="440" y="239" type="qcurve" />
      <point x="440" y="294" />
      <point x="393" y="377" />
      <point x="304" y="424" />
      <point x="242" y="424" type="qcurve" />
      <point x="204" y="424" />
      <point x="140" y="401" />
      <point x="96" y="378" />
      <point x="85" y="378" type="qcurve" />
      <point x="80" y="378" />
      <point x="71" y="384" />
      <point x="67" y="395" />
      <point x="68" y="402" type="qcurve" />
      <point x="115" y="677" type="line" />
      <point x="116" y="682" />
      <point x="127" y="694" />
      <point x="137" y="694" type="qcurve" />
      <point x="442" y="694" type="line" />
      <point x="450" y="694" />
      <point x="462" y="682" />
      <point x="462" y="673" type="qcurve" />
      <point x="462" y="664" />
      <point x="450" y="652" />
      <point x="442" y="652" type="qcurve" />
      <point x="145" y="652" type="line" />
      <point x="154" y="661" type="line" />
      <point x="108" y="412" type="line" />
      <point x="88" y="417" type="line" />
      <point x="104" y="427" />
      <point x="155" y="448" />
      <point x="220" y="463" />
      <point x="257" y="463" type="qcurve" />
      <point x="321" y="463" />
      <point x="421" y="407" />
      <point x="480" y="308" />
      <point x="480" y="242" type="qcurve" />
      <point x="480" y="170" />
      <point x="419" y="62" />
      <point x="308" y="1" />
    </contour>
  </outline>
</glyph>
<glyph name="six" format="2">
  <unicode hex="0036" />
  <advance width="533" />
  <outline>
    <contour>
      <point x="288" y="-10" type="qcurve" />
      <point x="228" y="-10" />
      <point x="141" y="31" />
      <point x="86" y="100" />
      <point x="60" y="187" />
      <point x="60" y="232" type="qcurve" />
      <point x="60" y="285" />
      <point x="88" y="401" />
      <point x="141" y="517" />
      <point x="216" y="620" />
      <point x="311" y="702" />
      <point x="366" y="725" type="qcurve" />
      <point x="372" y="727" />
      <point x="375" y="727" type="qcurve" />
      <point x="384" y="727" />
      <point x="397" y="716" />
      <point x="397" y="704" type="qcurve" />
      <point x="397" y="698" />
      <point x="390" y="689" />
      <point x="383" y="686" type="qcurve" />
      <point x="338" y="666" />
      <point x="251" y="591" />
      <point x="177" y="494" />
      <point x="125" y="386" />
      <point x="115" y="332" type="qcurve" />
      <point x="95" y="314" type="line" />
      <point x="114" y="352" />
      <point x="177" y="408" />
      <point x="256" y="439" />
      <point x="299" y="439" type="qcurve" />
      <point x="347" y="439" />
      <point x="422" y="400" />
      <point x="475" y="335" />
      <point x="503" y="254" />
      <point x="503" y="211" type="qcurve" />
      <point x="503" y="154" />
      <point x="448" y="53" />
      <point x="351" y="-10" />
    </contour>
    <contour>
      <point x="286" y="30" type="qcurve" />
      <point x="337" y="30" />
      <point x="416" y="76" />
      <point x="461" y="157" />
      <point x="461" y="211" type="qcurve" />
      <point x="461" y="259" />
      <point x="424" y="344" />
      <point x="349" y="398" />
      <point x="292" y="398" type="qcurve" />
      <point x="231" y="398" />
      <point x="146" y="345" />
      <point x="101" y="258" />
      <point x="101" y="207" type="qcurve" />
      <point x="101" y="162" />
      <point x="144" y="81" />
      <point x="227" y="30" />
    </contour>
  </outline>
</glyph>
<glyph name="seven" format="2">
  <unicode hex="0037" />
  <advance width="501" />
  <outline>
    <contour>
      <point x="170" y="-2" type="qcurve" />
      <point x="163" y="-2" />
      <point x="149" y="8" />
      <point x="149" y="16" type="qcurve" />
      <point x="149" y="20" />
      <point x="151" y="26" type="qcurve" />
      <point x="423" y="664" type="line" />
      <point x="435" y="655" type="line" />
      <point x="80" y="655" type="line" />
      <point x="72" y="655" />
      <point x="60" y="666" />
      <point x="60" y="675" type="qcurve" />
      <point x="60" y="684" />
      <point x="72" y="695" />
      <point x="80" y="695" type="qcurve" />
      <point x="454" y="695" type="line" />
      <point x="465" y="695" />
      <point x="471" y="685" />
      <point x="471" y="677" type="qcurve" />
      <point x="471" y="671" />
      <point x="469" y="667" type="qcurve" />
      <point x="190" y="11" type="line" />
      <point x="188" y="5" />
      <point x="177" y="-2" />
    </contour>
  </outline>
</glyph>
<glyph name="eight" format="2">
  <unicode hex="0038" />
  <advance width="537" />
  <outline>
    <contour>
      <point x="356" y="351" type="qcurve" />
      <point x="353" y="355" type="line" />
      <point x="386" y="343" />
      <point x="442" y="293" />
      <point x="477" y="223" />
      <point x="477" y="179" type="qcurve" />
      <point x="477" y="127" />
      <point x="422" y="41" />
      <point x="327" y="-10" />
      <point x="268" y="-10" type="qcurve" />
      <point x="209" y="-10" />
      <point x="115" y="41" />
      <point x="60" y="127" />
      <point x="60" y="179" type="qcurve" />
      <point x="60" y="223" />
      <point x="94" y="292" />
      <point x="150" y="341" />
      <point x="182" y="354" type="qcurve" />
      <point x="180" y="350" type="line" />
      <point x="153" y="363" />
      <point x="106" y="411" />
      <point x="76" y="476" />
      <point x="76" y="514" type="qcurve" />
      <point x="76" y="567" />
      <point x="127" y="651" />
      <point x="215" y="700" />
      <point x="268" y="700" type="qcurve" />
      <point x="321" y="700" />
      <point x="408" y="651" />
      <point x="459" y="567" />
      <point x="459" y="514" type="qcurve" />
      <point x="459" y="476" />
      <point x="430" y="412" />
      <point x="383" y="364" />
    </contour>
    <contour>
      <point x="118" y="514" type="qcurve" />
      <point x="118" y="470" />
      <point x="160" y="404" />
      <point x="229" y="367" />
      <point x="268" y="367" type="qcurve" />
      <point x="307" y="367" />
      <point x="375" y="404" />
      <point x="417" y="470" />
      <point x="417" y="514" type="qcurve" />
      <point x="417" y="579" />
      <point x="334" y="660" />
      <point x="268" y="660" type="qcurve" />
      <point x="201" y="660" />
      <point x="118" y="579" />
    </contour>
    <contour>
      <point x="268" y="30" type="qcurve" />
      <point x="343" y="30" />
      <point x="435" y="114" />
      <point x="435" y="179" type="qcurve" />
      <point x="435" y="223" />
      <point x="389" y="292" />
      <point x="313" y="331" />
      <point x="268" y="331" type="qcurve" />
      <point x="224" y="331" />
      <point x="148" y="292" />
      <point x="102" y="223" />
      <point x="102" y="179" type="qcurve" />
      <point x="102" y="114" />
      <point x="193" y="30" />
    </contour>
  </outline>
</glyph>
<glyph name="nine" format="2">
  <unicode hex="0039" />
  <advance width="555" />
  <outline>
    <contour>
      <point x="275" y="710" type="qcurve" />
      <point x="335" y="710" />
      <point x="422" y="669" />
      <point x="477" y="600" />
      <point x="503" y="513" />
      <point x="503" y="468" type="qcurve" />
      <point x="503" y="415" />
      <point x="475" y="302" />
      <point x="422" y="191" />
      <point x="347" y="92" />
      <point x="252" y="13" />
      <point x="197" y="-10" type="qcurve" />
      <point x="191" y="-12" />
      <point x="188" y="-12" type="qcurve" />
      <point x="179" y="-12" />
      <point x="166" y="3" />
      <point x="166" y="11" type="qcurve" />
      <point x="166" y="17" />
      <point x="173" y="26" />
      <point x="180" y="29" type="qcurve" />
      <point x="241" y="56" />
      <point x="353" y="161" />
      <point x="435" y="297" />
      <point x="448" y="368" type="qcurve" />
      <point x="468" y="386" type="line" />
      <point x="449" y="348" />
      <point x="386" y="293" />
      <point x="308" y="263" />
      <point x="264" y="263" type="qcurve" />
      <point x="201" y="263" />
      <point x="109" y="329" />
      <point x="60" y="432" />
      <point x="60" y="489" type="qcurve" />
      <point x="60" y="547" />
      <point x="115" y="647" />
      <point x="212" y="710" />
    </contour>
    <contour>
      <point x="277" y="670" type="qcurve" />
      <point x="226" y="670" />
      <point x="147" y="625" />
      <point x="102" y="543" />
      <point x="102" y="489" type="qcurve" />
      <point x="102" y="442" />
      <point x="139" y="357" />
      <point x="215" y="304" />
      <point x="271" y="304" type="qcurve" />
      <point x="332" y="304" />
      <point x="417" y="356" />
      <point x="462" y="442" />
      <point x="462" y="493" type="qcurve" />
      <point x="462" y="539" />
      <point x="419" y="619" />
      <point x="337" y="670" />
    </contour>
  </outline>
</glyph>
<glyph name="semicolon" format="2">
  <unicode hex="003B" />
  <advance width="167" />
  <outline>
    <contour>
      <point x="94" y="425" type="line" />
      <point x="81" y="425" />
      <point x="63" y="443" />
      <point x="63" y="456" type="qcurve" />
      <point x="63" y="479" type="line" />
      <point x="63" y="493" />
      <point x="81" y="510" />
      <point x="94" y="510" type="qcurve" />
      <point x="98" y="510" type="line" />
      <point x="112" y="510" />
      <point x="129" y="493" />
      <point x="129" y="479" type="qcurve" />
      <point x="129" y="456" type="line" />
      <point x="129" y="443" />
      <point x="112" y="425" />
      <point x="98" y="425" type="qcurve" />
    </contour>
    <contour>
      <point x="139" y="-13" type="qcurve" />
      <point x="139" y="-38" />
      <point x="109" y="-84" />
      <point x="68" y="-113" />
      <point x="49" y="-113" type="qcurve" />
      <point x="42" y="-113" />
      <point x="31" y="-106" />
      <point x="31" y="-95" type="qcurve" />
      <point x="31" y="-84" />
      <point x="46" y="-82" />
      <point x="62" y="-74" type="qcurve" />
      <point x="80" y="-65" />
      <point x="99" y="-39" />
      <point x="99" y="-23" type="qcurve" />
      <point x="99" y="-9" />
      <point x="86" y="4" />
      <point x="78" y="4" type="qcurve" />
      <point x="71" y="4" />
      <point x="57" y="-1" />
      <point x="52" y="-5" type="qcurve" />
      <point x="48" y="0" />
      <point x="43" y="12" />
      <point x="44" y="18" type="qcurve" />
      <point x="46" y="30" />
      <point x="72" y="48" />
      <point x="88" y="48" type="qcurve" />
      <point x="110" y="48" />
      <point x="139" y="9" />
    </contour>
  </outline>
</glyph>
<glyph name="less" format="2">
  <unicode hex="003C" />
  <advance width="522" />
  <outline>
    <contour>
      <point x="433" y="94" type="qcurve" />
      <point x="429" y="94" />
      <point x="419" y="98" />
      <point x="415" y="100" type="qcurve" />
      <point x="56" y="303" type="line" />
      <point x="44" y="309" />
      <point x="35" y="323" />
      <point x="35" y="334" type="qcurve" />
      <point x="35" y="345" />
      <point x="49" y="359" />
      <point x="60" y="365" type="qcurve" />
      <point x="411" y="564" type="line" />
      <point x="415" y="566" />
      <point x="423" y="569" />
      <point x="427" y="569" type="qcurve" />
      <point x="437" y="570" />
      <point x="449" y="559" />
      <point x="449" y="551" type="qcurve" />
      <point x="449" y="541" />
      <point x="441" y="531" />
      <point x="433" y="527" type="qcurve" />
      <point x="79" y="330" type="line" />
      <point x="79" y="333" type="line" />
      <point x="428" y="140" type="line" />
      <point x="442" y="133" />
      <point x="452" y="123" />
      <point x="452" y="113" type="qcurve" />
      <point x="452" y="106" />
      <point x="441" y="94" />
    </contour>
  </outline>
</glyph>
<glyph name="equal" format="2">
  <unicode hex="003D" />
  <advance width="486" />
  <outline>
    <contour>
      <point x="71" y="397" type="line" />
      <point x="62" y="397" />
      <point x="50" y="409" />
      <point x="50" y="418" type="qcurve" />
      <point x="50" y="426" />
      <point x="62" y="437" />
      <point x="71" y="437" type="qcurve" />
      <point x="415" y="437" type="line" />
      <point x="424" y="437" />
      <point x="436" y="425" />
      <point x="436" y="416" type="qcurve" />
      <point x="436" y="409" />
      <point x="424" y="397" />
      <point x="415" y="397" type="qcurve" />
    </contour>
    <contour>
      <point x="71" y="218" type="line" />
      <point x="62" y="218" />
      <point x="50" y="230" />
      <point x="50" y="239" type="qcurve" />
      <point x="50" y="247" />
      <point x="62" y="258" />
      <point x="71" y="258" type="qcurve" />
      <point x="415" y="258" type="line" />
      <point x="424" y="258" />
      <point x="436" y="246" />
      <point x="436" y="237" type="qcurve" />
      <point x="436" y="230" />
      <point x="424" y="218" />
      <point x="415" y="218" type="qcurve" />
    </contour>
  </outline>
</glyph>
<glyph name="greater" format="2">
  <unicode hex="003E" />
  <advance width="531" />
  <outline>
    <contour>
      <point x="89" y="97" type="qcurve" />
      <point x="81" y="97" />
      <point x="70" y="109" />
      <point x="70" y="116" type="qcurve" />
      <point x="70" y="126" />
      <point x="81" y="136" />
      <point x="94" y="143" type="qcurve" />
      <point x="452" y="334" type="line" />
      <point x="452" y="331" type="line" />
      <point x="89" y="530" type="line" />
      <point x="82" y="534" />
      <point x="73" y="544" />
      <point x="73" y="554" type="qcurve" />
      <point x="73" y="562" />
      <point x="85" y="573" />
      <point x="95" y="572" type="qcurve" />
      <point x="99" y="572" />
      <point x="107" y="569" />
      <point x="111" y="567" type="qcurve" />
      <point x="471" y="366" type="line" />
      <point x="482" y="360" />
      <point x="496" y="346" />
      <point x="496" y="335" type="qcurve" />
      <point x="496" y="324" />
      <point x="487" y="310" />
      <point x="475" y="304" type="qcurve" />
      <point x="107" y="103" type="line" />
      <point x="103" y="101" />
      <point x="93" y="97" />
    </contour>
  </outline>
</glyph>
<glyph name="question" format="2">
  <unicode hex="003F" />
  <advance width="471" />
  <outline>
    <contour>
      <point x="216" y="343" type="line" />
      <point x="216" y="351" />
      <point x="228" y="363" />
      <point x="236" y="363" type="qcurve" />
      <point x="283" y="367" />
      <point x="357" y="412" />
      <point x="400" y="485" />
      <point x="400" y="529" type="qcurve" />
      <point x="400" y="580" />
      <point x="359" y="655" />
      <point x="290" y="697" />
      <point x="247" y="697" type="qcurve" />
      <point x="201" y="697" />
      <point x="122" y="653" />
      <point x="96" y="618" type="qcurve" />
      <point x="91" y="611" />
      <point x="78" y="607" />
      <point x="70" y="611" type="qcurve" />
      <point x="61" y="616" />
      <point x="58" y="633" />
      <point x="63" y="640" type="qcurve" />
      <point x="93" y="682" />
      <point x="192" y="735" />
      <point x="247" y="735" type="qcurve" />
      <point x="301" y="735" />
      <point x="390" y="686" />
      <point x="443" y="594" />
      <point x="443" y="529" type="qcurve" />
      <point x="443" y="492" />
      <point x="411" y="420" />
      <point x="354" y="361" />
      <point x="280" y="326" />
      <point x="237" y="326" type="qcurve" />
      <point x="233" y="326" />
      <point x="248" y="330" />
      <point x="254" y="337" type="qcurve" />
      <point x="254" y="209" type="line" />
      <point x="254" y="201" />
      <point x="243" y="189" />
      <point x="235" y="189" type="qcurve" />
      <point x="226" y="189" />
      <point x="215" y="201" />
      <point x="216" y="209" type="qcurve" />
    </contour>
    <contour>
      <point x="237" y="0" type="line" />
      <point x="224" y="0" />
      <point x="210" y="18" />
      <point x="210" y="31" type="qcurve" />
      <point x="210" y="54" type="line" />
      <point x="210" y="68" />
      <point x="224" y="85" />
      <point x="237" y="85" type="qcurve" />
      <point x="241" y="85" type="line" />
      <point x="255" y="85" />
      <point x="268" y="68" />
      <point x="268" y="54" type="qcurve" />
      <point x="268" y="31" type="line" />
      <point x="268" y="18" />
      <point x="255" y="0" />
      <point x="241" y="0" type="qcurve" />
    </contour>
  </outline>
</glyph>
<glyph name="at" format="2">
  <unicode hex="0040" />
  <advance width="975" />
  <outline>
    <contour>
      <point x="700" y="55" type="qcurve" />
      <point x="670" y="55" />
      <point x="628" y="77" />
      <point x="608" y="118" />
      <point x="611" y="145" type="qcurve" />
      <point x="620" y="222" type="line" />
      <point x="634" y="230" type="line" />
      <point x="612" y="176" />
      <point x="540" y="97" />
      <point x="455" y="55" />
      <point x="412" y="55" type="qcurve" />
      <point x="367" y="55" />
      <point x="302" y="101" />
      <point x="266" y="176" />
      <point x="266" y="220" type="qcurve" />
      <point x="266" y="267" />
      <point x="302" y="368" />
      <point x="367" y="456" />
      <point x="455" y="510" />
      <point x="507" y="510" type="qcurve" />
      <point x="573" y="510" />
      <point x="649" y="430" />
      <point x="658" y="376" type="qcurve" />
      <point x="641" y="331" type="line" />
      <point x="664" y="477" type="line" />
      <point x="666" y="488" />
      <point x="676" y="500" />
      <point x="687" y="500" type="qcurve" />
      <point x="698" y="500" />
      <point x="706" y="487" />
      <point x="704" y="472" type="qcurve" />
      <point x="654" y="156" type="line" />
      <point x="649" y="122" />
      <point x="681" y="92" />
      <point x="700" y="92" type="qcurve" />
      <point x="738" y="92" />
      <point x="804" y="145" />
      <point x="856" y="232" />
      <point x="885" y="341" />
      <point x="885" y="396" type="qcurve" />
      <point x="885" y="478" />
      <point x="809" y="602" />
      <point x="670" y="672" />
      <point x="576" y="672" type="qcurve" />
      <point x="471" y="672" />
      <point x="291" y="609" />
      <point x="156" y="488" />
      <point x="80" y="316" />
      <point x="80" y="206" type="qcurve" />
      <point x="80" y="145" />
      <point x="118" y="27" />
      <point x="198" y="-68" />
      <point x="325" y="-124" />
      <point x="414" y="-124" type="qcurve" />
      <point x="469" y="-124" />
      <point x="546" y="-107" />
      <point x="607" y="-79" />
      <point x="639" y="-65" type="qcurve" />
      <point x="644" y="-63" />
      <point x="658" y="-63" />
      <point x="662" y="-73" type="qcurve" />
      <point x="669" y="-90" />
      <point x="653" y="-98" type="qcurve" />
      <point x="610" y="-119" />
      <point x="498" y="-162" />
      <point x="414" y="-162" type="qcurve" />
      <point x="313" y="-162" />
      <point x="171" y="-99" />
      <point x="82" y="7" />
      <point x="40" y="138" />
      <point x="40" y="206" type="qcurve" />
      <point x="40" y="323" />
      <point x="123" y="509" />
      <point x="270" y="641" />
      <point x="464" y="710" />
      <point x="576" y="710" type="qcurve" />
      <point x="690" y="710" />
      <point x="846" y="625" />
      <point x="925" y="482" />
      <point x="925" y="396" type="qcurve" />
      <point x="925" y="335" />
      <point x="890" y="214" />
      <point x="829" y="115" />
      <point x="747" y="55" />
    </contour>
    <contour>
      <point x="414" y="93" type="qcurve" />
      <point x="452" y="93" />
      <point x="531" y="134" />
      <point x="598" y="205" />
      <point x="639" y="294" />
      <point x="639" y="343" type="qcurve" />
      <point x="639" y="377" />
      <point x="608" y="436" />
      <point x="549" y="472" />
      <point x="508" y="472" type="qcurve" />
      <point x="461" y="472" />
      <point x="387" y="424" />
      <point x="335" y="347" />
      <point x="308" y="260" />
      <point x="308" y="222" type="qcurve" />
      <point x="308" y="161" />
      <point x="372" y="93" />
    </contour>
  </outline>
</glyph>
<glyph name="A" format="2">
  <unicode hex="0041" />
  <advance width="649" />
  <outline>
    <contour>
      <point x="327" y="649" type="line" />
      <point x="74" y="13" type="line" />
      <point x="72" y="7" />
      <point x="62" y="0" />
      <point x="56" y="0" type="qcurve" />
      <point x="46" y="0" />
      <point x="36" y="10" />
      <point x="35" y="17" type="qcurve" />
      <point x="34" y="21" />
      <point x="36" y="27" type="qcurve" />
      <point x="305" y="689" type="line" />
      <point x="308" y="697" />
      <point x="317" y="702" />
      <point x="324" y="702" type="qcurve" />
      <point x="332" y="702" />
      <point x="342" y="695" />
      <point x="344" y="689" type="qcurve" />
      <point x="613" y="27" type="line" />
      <point x="614" y="24" />
      <point x="614" y="19" type="qcurve" />
      <point x="614" y="10" />
      <point x="602" y="0" />
      <point x="593" y="0" type="qcurve" />
      <point x="586" y="0" />
      <point x="575" y="7" />
      <point x="573" y="13" type="qcurve" />
      <point x="312" y="657" type="line" />
    </contour>
    <contour>
      <point x="142" y="217" type="line" />
      <point x="156" y="257" type="line" />
      <point x="480" y="257" type="line" />
      <point x="490" y="217" type="line" />
    </contour>
  </outline>
</glyph>
<glyph name="B" format="2">
  <unicode hex="0042" />
  <advance width="650" />
  <outline>
    <contour>
      <point x="389" y="700" type="line" />
      <point x="469" y="700" />
      <point x="565" y="608" />
      <point x="565" y="530" type="qcurve" />
      <point x="565" y="489" />
      <point x="532" y="412" />
      <point x="468" y="362" />
      <point x="421" y="358" type="qcurve" />
      <point x="414" y="370" type="line" />
      <point x="453" y="370" />
      <point x="521" y="347" />
      <point x="571" y="301" />
      <point x="600" y="234" />
      <point x="600" y="189" type="qcurve" />
      <point x="600" y="141" />
      <point x="568" y="70" />
      <point x="512" y="23" />
      <point x="438" y="0" />
      <point x="396" y="0" type="qcurve" />
      <point x="120" y="0" type="line" />
      <point x="112" y="0" />
      <point x="100" y="12" />
      <point x="100" y="20" type="qcurve" />
      <point x="100" y="680" type="line" />
      <point x="100" y="688" />
      <point x="112" y="700" />
      <point x="120" y="700" type="qcurve" />
    </contour>
    <contour>
      <point x="384" y="660" type="qcurve" />
      <point x="142" y="660" type="line" />
      <point x="142" y="379" type="line" />
      <point x="384" y="379" type="line" />
      <point x="443" y="380" />
      <point x="523" y="456" />
      <point x="523" y="531" type="qcurve" />
      <point x="523" y="589" />
      <point x="451" y="660" />
    </contour>
    <contour>
      <point x="391" y="338" type="qcurve" />
      <point x="142" y="338" type="line" />
      <point x="142" y="32" type="line" />
      <point x="137" y="40" type="line" />
      <point x="391" y="40" type="line" />
      <point x="462" y="40" />
      <point x="558" y="111" />
      <point x="558" y="189" type="qcurve" />
      <point x="558" y="241" />
      <point x="514" y="307" />
      <point x="438" y="338" />
    </contour>
  </outline>
</glyph>
<glyph name="D" format="2">
  <unicode hex="0044" />
  <advance width="720" />
  <outline>
    <contour>
      <point x="380" y="700" type="line" />
      <point x="455" y="700" />
      <point x="565" y="643" />
      <point x="636" y="544" />
      <point x="670" y="418" />
      <point x="670" y="350" type="qcurve" />
      <point x="670" y="254" />
      <point x="609" y="95" />
      <point x="481" y="0" />
      <point x="380" y="0" type="qcurve" />
      <point x="120" y="0" type="line" />
      <point x="112" y="0" />
      <point x="100" y="12" />
      <point x="100" y="20" type="qcurve" />
      <point x="100" y="680" type="line" />
      <point x="100" y="688" />
      <point x="112" y="700" />
      <point x="120" y="700" type="qcurve" />
    </contour>
    <contour>
      <point x="370" y="40" type="line" />
      <point x="462" y="40" />
      <point x="575" y="123" />
      <point x="628" y="264" />
      <point x="628" y="350" type="qcurve" />
      <point x="628" y="411" />
      <point x="599" y="523" />
      <point x="537" y="610" />
      <point x="439" y="660" />
      <point x="370" y="660" type="qcurve" />
      <point x="142" y="660" type="line" />
      <point x="142" y="31" type="line" />
      <point x="136" y="40" type="line" />
    </contour>
  </outline>
</glyph>
<glyph name="E" format="2">
  <unicode hex="0045" />
  <advance width="567" />
  <outline>
    <contour>
      <point x="120" y="700" type="qcurve" />
      <point x="497" y="700" type="line" />
      <point x="505" y="700" />
      <point x="517" y="688" />
      <point x="517" y="680" type="qcurve" />
      <point x="517" y="671" />
      <point x="505" y="660" />
      <point x="497" y="660" type="qcurve" />
      <point x="132" y="660" type="line" />
      <point x="142" y="677" type="line" />
      <point x="142" y="367" type="line" />
      <point x="130" y="381" type="line" />
      <point x="452" y="381" type="line" />
      <point x="460" y="381" />
      <point x="472" y="369" />
      <point x="472" y="361" type="qcurve" />
      <point x="472" y="352" />
      <point x="460" y="341" />
      <point x="452" y="341" type="qcurve" />
      <point x="132" y="341" type="line" />
      <point x="142" y="352" type="line" />
      <point x="142" y="35" type="line" />
      <point x="138" y="40" type="line" />
      <point x="497" y="40" type="line" />
      <point x="505" y="40" />
      <point x="517" y="28" />
      <point x="517" y="20" type="qcurve" />
      <point x="517" y="11" />
      <point x="505" y="0" />
      <point x="497" y="0" type="qcurve" />
      <point x="120" y="0" type="line" />
      <point x="112" y="0" />
      <point x="100" y="12" />
      <point x="100" y="20" type="qcurve" />
      <point x="100" y="680" type="line" />
      <point x="100" y="688" />
      <point x="112" y="700" />
    </contour>
  </outline>
</glyph>
<glyph name="F" format="2">
  <unicode hex="0046" />
  <advance width="567" />
  <outline>
    <contour>
      <point x="120" y="0" type="qcurve" />
      <point x="111" y="0" />
      <point x="100" y="12" />
      <point x="100" y="20" type="qcurve" />
      <point x="100" y="680" type="line" />
      <point x="100" y="688" />
      <point x="112" y="700" />
      <point x="120" y="700" type="qcurve" />
      <point x="497" y="700" type="line" />
      <point x="505" y="700" />
      <point x="517" y="688" />
      <point x="517" y="680" type="qcurve" />
      <point x="517" y="671" />
      <point x="505" y="660" />
      <point x="497" y="660" type="qcurve" />
      <point x="137" y="660" type="line" />
      <point x="140" y="664" type="line" />
      <point x="140" y="376" type="line" />
      <point x="136" y="384" type="line" />
      <point x="452" y="384" type="line" />
      <point x="460" y="384" />
      <point x="472" y="372" />
      <point x="472" y="364" type="qcurve" />
      <point x="472" y="355" />
      <point x="460" y="344" />
      <point x="452" y="344" type="qcurve" />
      <point x="134" y="344" type="line" />
      <point x="140" y="352" type="line" />
      <point x="140" y="20" type="line" />
      <point x="140" y="12" />
      <point x="129" y="0" />
    </contour>
  </outline>
</glyph>
<glyph name="G" format="2">
  <unicode hex="0047" />
  <advance width="694" />
  <outline>
    <contour>
      <point x="409" y="-10" type="qcurve" />
      <point x="331" y="-10" />
      <point x="200" y="43" />
      <point x="103" y="140" />
      <point x="50" y="272" />
      <point x="50" y="350" type="qcurve" />
      <point x="50" y="428" />
      <point x="103" y="560" />
      <point x="200" y="657" />
      <point x="331" y="710" />
      <point x="409" y="710" type="qcurve" />
      <point x="464" y="710" />
      <point x="566" y="683" />
      <point x="606" y="656" type="qcurve" />
      <point x="611" y="653" />
      <point x="615" y="644" />
      <point x="615" y="639" type="qcurve" />
      <point x="615" y="629" />
      <point x="601" y="619" />
      <point x="596" y="619" type="qcurve" />
      <point x="592" y="619" />
      <point x="586" y="622" />
      <point x="583" y="623" type="qcurve" />
      <point x="546" y="644" />
      <point x="458" y="670" />
      <point x="409" y="670" type="qcurve" />
      <point x="316" y="670" />
      <point x="173" y="587" />
      <point x="92" y="443" />
      <point x="92" y="350" type="qcurve" />
      <point x="92" y="257" />
      <point x="173" y="112" />
      <point x="316" y="30" />
      <point x="409" y="30" type="qcurve" />
      <point x="459" y="30" />
      <point x="556" y="61" />
      <point x="593" y="86" type="qcurve" />
      <point x="589" y="68" type="line" />
      <point x="589" y="318" type="line" />
      <point x="603" y="305" type="line" />
      <point x="409" y="305" type="line" />
      <point x="401" y="305" />
      <point x="389" y="317" />
      <point x="389" y="325" type="qcurve" />
      <point x="389" y="334" />
      <point x="401" y="345" />
      <point x="409" y="345" type="qcurve" />
      <point x="609" y="345" type="line" />
      <point x="618" y="345" />
      <point x="629" y="333" />
      <point x="629" y="325" type="qcurve" />
      <point x="629" y="74" type="line" />
      <point x="629" y="70" />
      <point x="625" y="60" />
      <point x="620" y="56" type="qcurve" />
      <point x="576" y="26" />
      <point x="467" y="-10" />
    </contour>
  </outline>
</glyph>
<glyph name="H" format="2">
  <unicode hex="0048" />
  <advance width="720" />
  <outline>
    <contour>
      <point x="142" y="314" type="qcurve" />
      <point x="142" y="21" type="line" />
      <point x="141" y="12" />
      <point x="129" y="0" />
      <point x="121" y="0" type="qcurve" />
      <point x="111" y="0" />
      <point x="100" y="12" />
      <point x="100" y="21" type="qcurve" />
      <point x="100" y="679" type="line" />
      <point x="100" y="688" />
      <point x="112" y="700" />
      <point x="121" y="700" type="qcurve" />
      <point x="130" y="700" />
      <point x="142" y="688" />
      <point x="142" y="679" type="qcurve" />
      <point x="142" y="404" type="line" />
      <point x="142" y="380" type="line" />
      <point x="601" y="380" type="line" />
      <point x="601" y="340" type="line" />
      <point x="143" y="340" type="line" />
      <point x="142" y="340" />
    </contour>
    <contour>
      <point x="599" y="700" type="qcurve" />
      <point x="608" y="700" />
      <point x="620" y="688" />
      <point x="620" y="679" type="qcurve" />
      <point x="620" y="21" type="line" />
      <point x="619" y="12" />
      <point x="607" y="0" />
      <point x="599" y="0" type="qcurve" />
      <point x="589" y="0" />
      <point x="578" y="12" />
      <point x="578" y="21" type="qcurve" />
      <point x="578" y="679" type="line" />
      <point x="578" y="688" />
      <point x="590" y="700" />
    </contour>
  </outline>
</glyph>
<glyph name="J" format="2">
  <unicode hex="004A" />
  <advance width="596" />
  <outline>
    <contour>
      <point x="542" y="660" type="qcurve" />
      <point x="388" y="660" type="line" />
      <point x="388" y="199" type="line" />
      <point x="388" y="137" />
      <point x="335" y="42" />
      <point x="240" y="-10" />
      <point x="197" y="-10" type="qcurve" />
      <point x="132" y="-10" />
      <point x="82" y="29" type="qcurve" />
      <point x="60" y="46" />
      <point x="53" y="56" type="qcurve" />
      <point x="48" y="62" />
      <point x="50" y="71" type="qcurve" />
      <point x="52" y="82" />
      <point x="58" y="85" type="qcurve" />
      <point x="67" y="89" />
      <point x="78" y="84" type="qcurve" />
      <point x="86" y="76" />
      <point x="104" y="62" type="qcurve" />
      <point x="145" y="30" />
      <point x="197" y="30" type="qcurve" />
      <point x="229" y="30" />
      <point x="304" y="72" />
      <point x="346" y="148" />
      <point x="346" y="199" type="qcurve" />
      <point x="346" y="660" type="line" />
      <point x="192" y="660" type="line" />
      <point x="184" y="660" />
      <point x="173" y="672" />
      <point x="173" y="681" type="qcurve" />
      <point x="173" y="689" />
      <point x="184" y="700" />
      <point x="192" y="700" type="qcurve" />
      <point x="542" y="700" type="line" />
      <point x="550" y="700" />
      <point x="561" y="688" />
      <point x="561" y="679" type="qcurve" />
      <point x="561" y="671" />
      <point x="550" y="660" />
    </contour>
  </outline>
</glyph>
<glyph name="K" format="2">
  <unicode hex="004B" />
  <advance width="622" />
  <outline>
    <contour>
      <point x="566" y="-5" type="qcurve" />
      <point x="561" y="-5" />
      <point x="552" y="2" type="qcurve" />
      <point x="107" y="352" type="line" />
      <point x="139" y="384" type="line" />
      <point x="584" y="30" type="line" />
      <point x="589" y="26" />
      <point x="589" y="16" type="qcurve" />
      <point x="589" y="4" />
      <point x="572" y="-5" />
    </contour>
    <contour>
      <point x="548" y="696" type="qcurve" />
      <point x="556" y="696" />
      <point x="568" y="684" />
      <point x="568" y="676" type="qcurve" />
      <point x="568" y="667" />
      <point x="562" y="662" type="qcurve" />
      <point x="150" y="351" type="line" />
      <point x="116" y="356" type="line" />
      <point x="107" y="369" type="line" />
      <point x="534" y="690" type="line" />
      <point x="542" y="696" />
    </contour>
    <contour>
      <point x="101" y="0" type="qcurve" />
      <point x="91" y="0" />
      <point x="80" y="12" />
      <point x="80" y="21" type="qcurve" />
      <point x="80" y="679" type="line" />
      <point x="80" y="688" />
      <point x="92" y="700" />
      <point x="101" y="700" type="qcurve" />
      <point x="110" y="700" />
      <point x="122" y="688" />
      <point x="122" y="679" type="qcurve" />
      <point x="122" y="21" type="line" />
      <point x="121" y="12" />
      <point x="109" y="0" />
    </contour>
  </outline>
</glyph>
<glyph name="L" format="2">
  <unicode hex="004C" />
  <advance width="522" />
  <outline>
    <contour>
      <point x="487" y="40" type="line" />
      <point x="495" y="40" />
      <point x="507" y="28" />
      <point x="507" y="20" type="qcurve" />
      <point x="507" y="11" />
      <point x="495" y="0" />
      <point x="487" y="0" type="qcurve" />
      <point x="120" y="0" type="line" />
      <point x="111" y="0" />
      <point x="100" y="12" />
      <point x="100" y="20" type="qcurve" />
      <point x="100" y="680" type="line" />
      <point x="100" y="688" />
      <point x="112" y="700" />
      <point x="121" y="700" type="qcurve" />
      <point x="130" y="700" />
      <point x="142" y="688" />
      <point x="142" y="680" type="qcurve" />
      <point x="142" y="22" type="line" />
      <point x="124" y="40" type="line" />
    </contour>
  </outline>
</glyph>
<glyph name="M" format="2">
  <unicode hex="004D" />
  <advance width="829" />
  <outline>
    <contour>
      <point x="119" y="700" type="qcurve" />
      <point x="124" y="700" />
      <point x="134" y="696" />
      <point x="138" y="691" type="qcurve" />
      <point x="425" y="264" type="line" />
      <point x="405" y="264" type="line" />
      <point x="692" y="691" type="line" />
      <point x="700" y="702" />
      <point x="711" y="700" type="qcurve" />
      <point x="719" y="699" />
      <point x="729" y="688" />
      <point x="729" y="680" type="qcurve" />
      <point x="729" y="20" type="line" />
      <point x="729" y="12" />
      <point x="716" y="0" />
      <point x="708" y="0" type="qcurve" />
      <point x="699" y="0" />
      <point x="687" y="12" />
      <point x="687" y="20" type="qcurve" />
      <point x="687" y="635" type="line" />
      <point x="698" y="635" type="line" />
      <point x="429" y="228" type="line" />
      <point x="427" y="224" />
      <point x="420" y="220" />
      <point x="415" y="220" type="qcurve" />
      <point x="410" y="220" />
      <point x="401" y="224" />
      <point x="399" y="228" type="qcurve" />
      <point x="124" y="643" type="line" />
      <point x="140" y="643" type="line" />
      <point x="140" y="20" type="line" />
      <point x="140" y="12" />
      <point x="128" y="0" />
      <point x="120" y="0" type="qcurve" />
      <point x="111" y="0" />
      <point x="100" y="12" />
      <point x="100" y="20" type="qcurve" />
      <point x="100" y="680" type="line" />
      <point x="100" y="687" />
      <point x="110" y="700" />
    </contour>
  </outline>
</glyph>
<glyph name="N" format="2">
  <unicode hex="004E" />
  <advance width="725" />
  <outline>
    <contour>
      <point x="606" y="700" type="qcurve" />
      <point x="615" y="700" />
      <point x="625" y="689" />
      <point x="625" y="681" type="qcurve" />
      <point x="625" y="22" type="line" />
      <point x="625" y="11" />
      <point x="612" y="0" />
      <point x="604" y="0" type="qcurve" />
      <point x="600" y="0" />
      <point x="591" y="4" />
      <point x="588" y="8" type="qcurve" />
      <point x="124" y="642" type="line" />
      <point x="138" y="649" type="line" />
      <point x="138" y="17" type="line" />
      <point x="138" y="10" />
      <point x="127" y="0" />
      <point x="119" y="0" type="qcurve" />
      <point x="110" y="0" />
      <point x="100" y="10" />
      <point x="100" y="17" type="qcurve" />
      <point x="100" y="680" type="line" />
      <point x="100" y="691" />
      <point x="112" y="700" />
      <point x="118" y="700" type="qcurve" />
      <point x="122" y="700" />
      <point x="130" y="697" />
      <point x="133" y="693" type="qcurve" />
      <point x="595" y="63" type="line" />
      <point x="587" y="43" type="line" />
      <point x="587" y="681" type="line" />
      <point x="587" y="689" />
      <point x="599" y="700" />
    </contour>
  </outline>
</glyph>
<glyph name="O" format="2">
  <unicode hex="004F" />
  <advance width="688" />
  <outline>
    <contour>
      <point x="638" y="350" type="qcurve" />
      <point x="638" y="270" />
      <point x="589" y="138" />
      <point x="509" y="42" />
      <point x="397" y="-10" />
      <point x="344" y="-10" type="qcurve" />
      <point x="291" y="-10" />
      <point x="179" y="42" />
      <point x="99" y="138" />
      <point x="50" y="270" />
      <point x="50" y="350" type="qcurve" />
      <point x="50" y="430" />
      <point x="99" y="562" />
      <point x="179" y="658" />
      <point x="291" y="710" />
      <point x="344" y="710" type="qcurve" />
      <point x="397" y="710" />
      <point x="509" y="658" />
      <point x="589" y="562" />
      <point x="638" y="430" />
    </contour>
    <contour>
      <point x="596" y="350" type="qcurve" />
      <point x="596" y="446" />
      <point x="531" y="590" />
      <point x="410" y="670" />
      <point x="344" y="670" type="qcurve" />
      <point x="279" y="670" />
      <point x="157" y="590" />
      <point x="92" y="446" />
      <point x="92" y="350" type="qcurve" />
      <point x="92" y="254" />
      <point x="157" y="110" />
      <point x="279" y="30" />
      <point x="344" y="30" type="qcurve" />
      <point x="410" y="30" />
      <point x="531" y="110" />
      <point x="596" y="254" />
    </contour>
  </outline>
</glyph>
<glyph name="Q" format="2">
  <unicode hex="0051" />
  <advance width="702" />
  <outline>
    <contour>
      <point x="638" y="350" type="qcurve" />
      <point x="638" y="270" />
      <point x="589" y="138" />
      <point x="509" y="42" />
      <point x="397" y="-10" />
      <point x="344" y="-10" type="qcurve" />
      <point x="291" y="-10" />
      <point x="179" y="42" />
      <point x="99" y="138" />
      <point x="50" y="270" />
      <point x="50" y="350" type="qcurve" />
      <point x="50" y="430" />
      <point x="99" y="562" />
      <point x="179" y="658" />
      <point x="291" y="710" />
      <point x="344" y="710" type="qcurve" />
      <point x="397" y="710" />
      <point x="509" y="658" />
      <point x="589" y="562" />
      <point x="638" y="430" />
    </contour>
    <contour>
      <point x="596" y="350" type="qcurve" />
      <point x="596" y="446" />
      <point x="531" y="590" />
      <point x="410" y="670" />
      <point x="344" y="670" type="qcurve" />
      <point x="279" y="670" />
      <point x="157" y="590" />
      <point x="92" y="446" />
      <point x="92" y="350" type="qcurve" />
      <point x="92" y="254" />
      <point x="157" y="110" />
      <point x="279" y="30" />
      <point x="344" y="30" type="qcurve" />
      <point x="410" y="30" />
      <point x="531" y="110" />
      <point x="596" y="254" />
    </contour>
    <contour>
      <point x="368" y="202" type="line" />
      <point x="361" y="208" />
      <point x="360" y="225" />
      <point x="366" y="232" type="qcurve" />
      <point x="371" y="238" />
      <point x="387" y="239" />
      <point x="394" y="233" type="qcurve" />
      <point x="632" y="33" type="line" />
      <point x="658" y="12" type="line" />
      <point x="665" y="6" />
      <point x="666" y="-11" />
      <point x="660" y="-18" type="qcurve" />
      <point x="656" y="-23" />
      <point x="639" y="-25" />
      <point x="632" y="-19" type="qcurve" />
    </contour>
  </outline>
</glyph>
<glyph name="R" format="2">
  <unicode hex="0052" />
  <advance width="664" />
  <outline>
    <contour>
      <point x="409" y="327" type="line" />
      <point x="605" y="31" type="line" />
      <point x="609" y="24" />
      <point x="609" y="17" type="qcurve" />
      <point x="608" y="5" />
      <point x="590" y="-3" />
      <point x="584" y="-2" type="qcurve" />
      <point x="576" y="-1" />
      <point x="571" y="6" type="qcurve" />
      <point x="358" y="323" type="line" />
    </contour>
    <contour>
      <point x="366" y="313" type="qcurve" />
      <point x="133" y="313" type="line" />
      <point x="142" y="325" type="line" />
      <point x="142" y="20" type="line" />
      <point x="142" y="12" />
      <point x="130" y="0" />
      <point x="121" y="0" type="qcurve" />
      <point x="111" y="0" />
      <point x="100" y="12" />
      <point x="100" y="20" type="qcurve" />
      <point x="100" y="680" type="line" />
      <point x="100" y="688" />
      <point x="112" y="700" />
      <point x="120" y="700" type="qcurve" />
      <point x="374" y="700" type="line" />
      <point x="433" y="700" />
      <point x="522" y="653" />
      <point x="572" y="571" />
      <point x="572" y="519" type="qcurve" />
      <point x="572" y="473" />
      <point x="556" y="436" type="qcurve" />
      <point x="540" y="400" />
      <point x="510" y="370" type="qcurve" />
      <point x="496" y="356" />
      <point x="449" y="331" type="qcurve" />
      <point x="434" y="322" />
      <point x="412" y="318" type="qcurve" />
      <point x="388" y="312" />
    </contour>
    <contour>
      <point x="132" y="353" type="line" />
      <point x="379" y="353" type="line" />
      <point x="419" y="357" />
      <point x="487" y="397" />
      <point x="530" y="469" />
      <point x="530" y="518" type="qcurve" />
      <point x="530" y="579" />
      <point x="443" y="660" />
      <point x="369" y="660" type="qcurve" />
      <point x="142" y="660" type="line" />
      <point x="142" y="342" type="line" />
    </contour>
  </outline>
</glyph>
<glyph name="S" format="2">
  <unicode hex="0053" />
  <advance width="550" />
  <outline>
    <contour>
      <point x="283" y="-10" type="qcurve" />
      <point x="205" y="-11" />
      <point x="93" y="43" />
      <point x="41" y="95" type="qcurve" />
      <point x="39" y="97" />
      <point x="35" y="104" />
      <point x="35" y="110" type="qcurve" />
      <point x="35" y="118" />
      <point x="49" y="133" />
      <point x="57" y="133" type="qcurve" />
      <point x="66" y="133" />
      <point x="74" y="124" type="qcurve" />
      <point x="114" y="78" />
      <point x="221" y="30" />
      <point x="279" y="30" type="qcurve" />
      <point x="330" y="30" />
      <point x="410" y="63" />
      <point x="456" y="124" />
      <point x="456" y="165" type="qcurve" />
      <point x="455" y="216" />
      <point x="401" y="278" />
      <point x="316" y="318" />
      <point x="269" y="335" type="qcurve" />
      <point x="232" y="349" />
      <point x="160" y="379" />
      <point x="102" y="422" />
      <point x="68" y="487" />
      <point x="68" y="535" type="qcurve" />
      <point x="68" y="584" />
      <point x="121" y="663" />
      <point x="220" y="710" />
      <point x="288" y="710" type="qcurve" />
      <point x="345" y="710" />
      <point x="453" y="669" />
      <point x="484" y="628" type="qcurve" />
      <point x="494" y="614" />
      <point x="494" y="607" type="qcurve" />
      <point x="494" y="600" />
      <point x="479" y="586" />
      <point x="470" y="586" type="qcurve" />
      <point x="462" y="586" />
      <point x="457" y="592" type="qcurve" />
      <point x="439" y="616" />
      <point x="388" y="651" />
      <point x="324" y="670" />
      <point x="288" y="670" type="qcurve" />
      <point x="239" y="670" />
      <point x="159" y="638" />
      <point x="111" y="579" />
      <point x="111" y="536" type="qcurve" />
      <point x="111" y="490" />
      <point x="164" y="431" />
      <point x="246" y="392" />
      <point x="289" y="376" type="qcurve" />
      <point x="327" y="363" />
      <point x="402" y="332" />
      <point x="463" y="286" />
      <point x="499" y="216" />
      <point x="499" y="163" type="qcurve" />
      <point x="499" y="117" />
      <point x="446" y="39" />
      <point x="350" y="-9" />
    </contour>
  </outline>
</glyph>
<glyph name="T" format="2">
  <unicode hex="0054" />
  <advance width="596" />
  <outline>
    <contour>
      <point x="55" y="662" type="line" />
      <point x="47" y="662" />
      <point x="35" y="673" />
      <point x="35" y="681" type="qcurve" />
      <point x="35" y="689" />
      <point x="47" y="700" />
      <point x="55" y="700" type="qcurve" />
      <point x="541" y="700" type="line" />
      <point x="549" y="700" />
      <point x="561" y="689" />
      <point x="561" y="681" type="qcurve" />
      <point x="561" y="672" />
      <point x="549" y="662" />
      <point x="541" y="662" type="qcurve" />
      <point x="318" y="662" type="line" />
      <point x="318" y="20" type="line" />
      <point x="318" y="12" />
      <point x="306" y="0" />
      <point x="298" y="0" type="qcurve" />
      <point x="289" y="0" />
      <point x="278" y="12" />
      <point x="278" y="20" type="qcurve" />
      <point x="278" y="662" type="line" />
    </contour>
  </outline>
</glyph>
<glyph name="U" format="2">
  <unicode hex="0055" />
  <advance width="715" />
  <outline>
    <contour>
      <point x="595" y="700" type="qcurve" />
      <point x="604" y="700" />
      <point x="615" y="688" />
      <point x="615" y="680" type="qcurve" />
      <point x="615" y="248" type="line" />
      <point x="615" y="177" />
      <point x="545" y="60" />
      <point x="429" y="-10" />
      <point x="358" y="-10" type="qcurve" />
      <point x="287" y="-10" />
      <point x="170" y="60" />
      <point x="100" y="177" />
      <point x="100" y="248" type="qcurve" />
      <point x="100" y="680" type="line" />
      <point x="100" y="688" />
      <point x="111" y="700" />
      <point x="121" y="700" type="qcurve" />
      <point x="130" y="700" />
      <point x="142" y="688" />
      <point x="142" y="680" type="qcurve" />
      <point x="142" y="248" type="line" />
      <point x="142" y="188" />
      <point x="200" y="89" />
      <point x="299" y="30" />
      <point x="358" y="30" type="qcurve" />
      <point x="418" y="30" />
      <point x="516" y="89" />
      <point x="575" y="188" />
      <point x="575" y="248" type="qcurve" />
      <point x="575" y="680" type="line" />
      <point x="575" y="688" />
      <point x="586" y="700" />
    </contour>
  </outline>
</glyph>
<glyph name="V" format="2">
  <unicode hex="0056" />
  <advance width="660" />
  <outline>
    <contour>
      <point x="605" y="700" type="qcurve" />
      <point x="615" y="700" />
      <point x="625" y="690" />
      <point x="625" y="682" type="qcurve" />
      <point x="625" y="678" />
      <point x="623" y="672" type="qcurve" />
      <point x="349" y="13" type="line" />
      <point x="346" y="7" />
      <point x="336" y="0" />
      <point x="330" y="0" type="qcurve" />
      <point x="324" y="0" />
      <point x="313" y="7" />
      <point x="311" y="13" type="qcurve" />
      <point x="39" y="669" type="line" />
      <point x="38" y="671" />
      <point x="36" y="677" />
      <point x="36" y="681" type="qcurve" />
      <point x="36" y="689" />
      <point x="48" y="700" />
      <point x="55" y="700" type="qcurve" />
      <point x="70" y="700" />
      <point x="77" y="684" type="qcurve" />
      <point x="337" y="58" type="line" />
      <point x="325" y="59" type="line" />
      <point x="586" y="687" type="line" />
      <point x="593" y="700" />
    </contour>
  </outline>
</glyph>
<glyph name="X" format="2">
  <unicode hex="0058" />
  <advance width="589" />
  <outline>
    <contour>
      <point x="50" y="703" type="qcurve" />
      <point x="62" y="703" />
      <point x="67" y="695" type="qcurve" />
      <point x="554" y="29" type="line" />
      <point x="559" y="22" />
      <point x="559" y="17" type="qcurve" />
      <point x="559" y="8" />
      <point x="546" y="-3" />
      <point x="538" y="-3" type="qcurve" />
      <point x="527" y="-3" />
      <point x="522" y="5" type="qcurve" />
      <point x="34" y="671" type="line" />
      <point x="30" y="676" />
      <point x="30" y="683" type="qcurve" />
      <point x="30" y="692" />
      <point x="42" y="703" />
    </contour>
    <contour>
      <point x="295" y="319" type="line" />
      <point x="65" y="5" type="line" />
      <point x="60" y="-3" />
      <point x="50" y="-3" type="qcurve" />
      <point x="40" y="-3" />
      <point x="31" y="9" />
      <point x="31" y="14" type="qcurve" />
      <point x="31" y="19" />
      <point x="36" y="27" type="qcurve" />
      <point x="275" y="353" type="line" />
      <point x="293" y="379" type="line" />
      <point x="524" y="696" type="line" />
      <point x="530" y="704" />
      <point x="539" y="704" type="qcurve" />
      <point x="547" y="704" />
      <point x="559" y="696" />
      <point x="559" y="688" type="qcurve" />
      <point x="559" y="681" />
      <point x="554" y="674" type="qcurve" />
      <point x="315" y="345" type="line" />
    </contour>
  </outline>
</glyph>
<glyph name="Y" format="2">
  <unicode hex="0059" />
  <advance width="547" />
  <outline>
    <contour>
      <point x="507" y="706" type="qcurve" />
      <point x="517" y="706" />
      <point x="527" y="692" />
      <point x="527" y="687" type="qcurve" />
      <point x="527" y="683" />
      <point x="525" y="677" />
      <point x="523" y="674" type="qcurve" />
      <point x="295" y="358" type="line" />
      <point x="295" y="20" type="line" />
      <point x="295" y="12" />
      <point x="283" y="0" />
      <point x="274" y="0" type="qcurve" />
      <point x="264" y="0" />
      <point x="253" y="12" />
      <point x="253" y="20" type="qcurve" />
      <point x="253" y="357" type="line" />
      <point x="253" y="358" />
      <point x="24" y="672" type="qcurve" />
      <point x="22" y="675" />
      <point x="20" y="681" />
      <point x="20" y="685" type="qcurve" />
      <point x="20" y="693" />
      <point x="34" y="704" />
      <point x="41" y="704" type="qcurve" />
      <point x="52" y="704" />
      <point x="58" y="695" type="qcurve" />
      <point x="280" y="392" type="line" />
      <point x="270" y="390" type="line" />
      <point x="490" y="697" type="line" />
      <point x="496" y="706" />
    </contour>
  </outline>
</glyph>
<glyph name="Z" format="2">
  <unicode hex="005A" />
  <advance width="643" />
  <outline>
    <contour>
      <point x="570" y="700" type="line" />
      <point x="583" y="700" />
      <point x="593" y="687" />
      <point x="593" y="680" type="qcurve" />
      <point x="593" y="673" />
      <point x="589" y="668" type="qcurve" />
      <point x="111" y="28" type="line" />
      <point x="112" y="38" type="line" />
      <point x="572" y="38" type="line" />
      <point x="580" y="38" />
      <point x="592" y="26" />
      <point x="592" y="19" type="qcurve" />
      <point x="592" y="11" />
      <point x="580" y="0" />
      <point x="572" y="0" type="qcurve" />
      <point x="80" y="0" type="line" />
      <point x="70" y="0" />
      <point x="60" y="14" />
      <point x="60" y="21" type="qcurve" />
      <point x="60" y="28" />
      <point x="64" y="33" type="qcurve" />
      <point x="539" y="666" type="line" />
      <point x="545" y="662" type="line" />
      <point x="100" y="662" type="line" />
      <point x="92" y="662" />
      <point x="80" y="674" />
      <point x="80" y="681" type="qcurve" />
      <point x="80" y="689" />
      <point x="92" y="700" />
      <point x="100" y="700" type="qcurve" />
    </contour>
  </outline>
</glyph>
<glyph name="bracketleft" format="2">
  <unicode hex="005B" />
  <advance width="393" />
  <outline>
    <contour>
      <point x="100" y="-180" type="line" />
      <point x="92" y="-180" />
      <point x="80" y="-168" />
      <point x="80" y="-160" type="qcurve" />
      <point x="80" y="740" type="line" />
      <point x="80" y="748" />
      <point x="92" y="760" />
      <point x="100" y="760" type="qcurve" />
      <point x="333" y="760" type="line" />
      <point x="341" y="760" />
      <point x="353" y="749" />
      <point x="353" y="741" type="qcurve" />
      <point x="353" y="733" />
      <point x="341" y="722" />
      <point x="333" y="722" type="qcurve" />
      <point x="110" y="722" type="line" />
      <point x="120" y="729" type="line" />
      <point x="120" y="-153" type="line" />
      <point x="114" y="-140" type="line" />
      <point x="333" y="-140" type="line" />
      <point x="341" y="-140" />
      <point x="353" y="-153" />
      <point x="353" y="-161" type="qcurve" />
      <point x="353" y="-168" />
      <point x="341" y="-180" />
      <point x="333" y="-180" type="qcurve" />
    </contour>
  </outline>
</glyph>
<glyph name="backslash" format="2">
  <unicode hex="005C" />
  <advance width="337" />
  <outline>
    <contour>
      <point x="285" y="-46" type="qcurve" />
      <point x="13" y="703" type="line" />
      <point x="10" y="711" />
      <point x="13" y="718" type="qcurve" />
      <point x="16" y="726" />
      <point x="24" y="729" type="qcurve" />
      <point x="33" y="732" />
      <point x="40" y="728" type="qcurve" />
      <point x="48" y="724" />
      <point x="50" y="717" type="qcurve" />
      <point x="323" y="-32" type="line" />
      <point x="326" y="-40" />
      <point x="322" y="-48" type="qcurve" />
      <point x="320" y="-54" />
      <point x="311" y="-58" type="qcurve" />
      <point x="304" y="-61" />
      <point x="288" y="-53" />
    </contour>
  </outline>
</glyph>
<glyph name="bracketright" format="2">
  <unicode hex="005D" />
  <advance width="393" />
  <outline>
    <contour>
      <point x="293" y="760" type="line" />
      <point x="301" y="760" />
      <point x="313" y="748" />
      <point x="313" y="740" type="qcurve" />
      <point x="313" y="-160" type="line" />
      <point x="313" y="-168" />
      <point x="301" y="-180" />
      <point x="293" y="-180" type="qcurve" />
      <point x="60" y="-180" type="line" />
      <point x="52" y="-180" />
      <point x="40" y="-169" />
      <point x="40" y="-161" type="qcurve" />
      <point x="40" y="-153" />
      <point x="52" y="-142" />
      <point x="60" y="-142" type="qcurve" />
      <point x="283" y="-142" type="line" />
      <point x="273" y="-149" type="line" />
      <point x="273" y="733" type="line" />
      <point x="279" y="720" type="line" />
      <point x="60" y="720" type="line" />
      <point x="52" y="720" />
      <point x="40" y="733" />
      <point x="40" y="741" type="qcurve" />
      <point x="40" y="749" />
      <point x="52" y="760" />
      <point x="60" y="760" type="qcurve" />
    </contour>
  </outline>
</glyph>
<glyph name="asciicircum" format="2">
  <unicode hex="005E" />
  <advance width="484" />
  <outline>
    <contour>
      <point x="77" y="422" type="qcurve" />
      <point x="69" y="422" />
      <point x="59" y="433" />
      <point x="59" y="440" type="qcurve" />
      <point x="59" y="443" />
      <point x="61" y="450" />
      <point x="63" y="454" type="qcurve" />
      <point x="216" y="738" type="line" />
      <point x="222" y="750" />
      <point x="233" y="760" />
      <point x="242" y="760" type="qcurve" />
      <point x="252" y="760" />
      <point x="262" y="749" />
      <point x="268" y="738" type="qcurve" />
      <point x="421" y="453" type="line" />
      <point x="423" y="450" />
      <point x="424" y="444" />
      <point x="424" y="441" type="qcurve" />
      <point x="424" y="434" />
      <point x="415" y="422" />
      <point x="405" y="422" type="qcurve" />
      <point x="395" y="422" />
      <point x="383" y="433" />
      <point x="378" y="443" type="qcurve" />
      <point x="236" y="718" type="line" />
      <point x="248" y="718" type="line" />
      <point x="104" y="443" type="line" />
      <point x="99" y="433" />
      <point x="88" y="422" />
    </contour>
  </outline>
</glyph>
<glyph name="underscore" format="2">
  <unicode hex="005F" />
  <advance width="654" />
  <outline>
    <contour>
      <point x="82" y="-160" type="line" />
      <point x="72" y="-160" />
      <point x="60" y="-148" />
      <point x="60" y="-140" type="qcurve" />
      <point x="60" y="-130" />
      <point x="72" y="-120" />
      <point x="82" y="-120" type="qcurve" />
      <point x="572" y="-120" type="line" />
      <point x="582" y="-120" />
      <point x="594" y="-130" />
      <point x="594" y="-140" type="qcurve" />
      <point x="594" y="-148" />
      <point x="582" y="-160" />
      <point x="572" y="-160" type="qcurve" />
    </contour>
  </outline>
</glyph>
<glyph name="a" format="2">
  <unicode hex="0061" />
  <advance width="580" />
  <outline>
    <contour>
      <point x="480" y="163" type="line" />
      <point x="474" y="146" />
      <point x="466" y="130" type="qcurve" />
      <point x="456" y="107" />
      <point x="442" y="87" type="qcurve" />
      <point x="405" y="33" />
      <point x="293" y="-18" />
      <point x="233" y="-7" type="qcurve" />
      <point x="164" y="5" />
      <point x="76" y="91" />
      <point x="42" y="218" />
      <point x="55" y="290" type="qcurve" />
      <point x="68" y="364" />
      <point x="143" y="472" />
      <point x="256" y="522" />
      <point x="324" y="510" type="qcurve" />
      <point x="384" y="499" />
      <point x="428" y="457" type="qcurve" />
      <point x="460" y="425" />
      <point x="477" y="383" type="qcurve" />
      <point x="457" y="395" type="line" />
      <point x="457" y="469" type="line" />
      <point x="457" y="477" />
      <point x="468" y="489" />
      <point x="477" y="489" type="qcurve" />
      <point x="486" y="489" />
      <point x="497" y="477" />
      <point x="497" y="469" type="qcurve" />
      <point x="497" y="170" type="line" />
      <point x="497" y="155" />
      <point x="501" y="121" type="qcurve" />
      <point x="504" y="96" />
      <point x="515" y="62" type="qcurve" />
      <point x="519" y="48" />
      <point x="537" y="20" type="qcurve" />
      <point x="541" y="14" />
      <point x="540" y="7" type="qcurve" />
      <point x="540" y="-1" />
      <point x="534" y="-6" type="qcurve" />
      <point x="533" y="-7" type="line" />
      <point x="527" y="-12" />
      <point x="520" y="-11" type="qcurve" />
      <point x="512" y="-11" />
      <point x="507" y="-4" type="qcurve" />
      <point x="487" y="19" />
      <point x="479" y="45" type="qcurve" />
      <point x="467" y="80" />
      <point x="462" y="115" type="qcurve" />
      <point x="459" y="139" />
      <point x="458" y="156" type="qcurve" />
    </contour>
    <contour>
      <point x="456" y="198" type="qcurve" />
      <point x="470" y="276" />
      <point x="457" y="346" type="qcurve" />
      <point x="447" y="401" />
      <point x="407" y="434" type="qcurve" />
      <point x="367" y="464" />
      <point x="318" y="473" type="qcurve" />
      <point x="260" y="483" />
      <point x="167" y="439" />
      <point x="106" y="348" />
      <point x="95" y="284" type="qcurve" />
      <point x="84" y="221" />
      <point x="109" y="114" />
      <point x="146" y="78" type="qcurve" />
      <point x="189" y="35" />
      <point x="240" y="26" type="qcurve" />
      <point x="290" y="17" />
      <point x="331" y="36" type="qcurve" />
      <point x="382" y="59" />
      <point x="409" y="95" type="qcurve" />
      <point x="445" y="141" />
    </contour>
  </outline>
</glyph>
<glyph name="b" format="2">
  <unicode hex="0062" />
  <advance width="599" />
  <outline>
    <contour>
      <point x="315" y="515" type="qcurve" />
      <point x="382" y="515" />
      <point x="486" y="448" />
      <point x="547" y="331" />
      <point x="547" y="255" type="qcurve" />
      <point x="547" y="180" />
      <point x="486" y="60" />
      <point x="381" y="-10" />
      <point x="315" y="-10" type="qcurve" />
      <point x="282" y="-10" />
      <point x="221" y="10" />
      <point x="169" y="47" />
      <point x="126" y="100" />
      <point x="110" y="133" type="qcurve" />
      <point x="123" y="147" type="line" />
      <point x="123" y="20" type="line" />
      <point x="123" y="12" />
      <point x="112" y="0" />
      <point x="103" y="0" type="qcurve" />
      <point x="95" y="0" />
      <point x="83" y="12" />
      <point x="83" y="20" type="qcurve" />
      <point x="83" y="719" type="line" />
      <point x="83" y="727" />
      <point x="94" y="739" />
      <point x="103" y="739" type="qcurve" />
      <point x="112" y="739" />
      <point x="123" y="727" />
      <point x="123" y="719" type="qcurve" />
      <point x="123" y="357" type="line" />
      <point x="110" y="364" type="line" />
      <point x="124" y="401" />
      <point x="166" y="457" />
      <point x="220" y="495" />
      <point x="282" y="515" />
    </contour>
    <contour>
      <point x="313" y="477" type="qcurve" />
      <point x="256" y="477" />
      <point x="169" y="420" />
      <point x="119" y="320" />
      <point x="119" y="255" type="qcurve" />
      <point x="119" y="190" />
      <point x="169" y="87" />
      <point x="256" y="28" />
      <point x="313" y="28" type="qcurve" />
      <point x="369" y="28" />
      <point x="456" y="88" />
      <point x="507" y="191" />
      <point x="507" y="255" type="qcurve" />
      <point x="507" y="320" />
      <point x="456" y="420" />
      <point x="369" y="477" />
    </contour>
  </outline>
</glyph>
<glyph name="c" format="2">
  <unicode hex="0063" />
  <advance width="517" />
  <outline>
    <contour>
      <point x="304" y="515" type="qcurve" />
      <point x="349" y="515" />
      <point x="428" y="495" />
      <point x="477" y="462" />
      <point x="477" y="444" type="qcurve" />
      <point x="477" y="437" />
      <point x="466" y="424" />
      <point x="458" y="424" type="qcurve" />
      <point x="447" y="424" />
      <point x="434" y="436" />
      <point x="420" y="453" />
      <point x="405" y="460" type="qcurve" />
      <point x="391" y="467" />
      <point x="340" y="477" />
      <point x="303" y="477" type="qcurve" />
      <point x="245" y="477" />
      <point x="149" y="417" />
      <point x="92" y="316" />
      <point x="92" y="253" type="qcurve" />
      <point x="92" y="189" />
      <point x="145" y="87" />
      <point x="240" y="28" />
      <point x="303" y="28" type="qcurve" />
      <point x="348" y="28" />
      <point x="395" y="45" />
      <point x="412" y="55" type="qcurve" />
      <point x="433" y="67" />
      <point x="449" y="89" />
      <point x="460" y="89" type="qcurve" />
      <point x="468" y="89" />
      <point x="477" y="79" />
      <point x="477" y="71" type="qcurve" />
      <point x="477" y="59" />
      <point x="433" y="20" />
      <point x="354" y="-10" />
      <point x="300" y="-10" type="qcurve" />
      <point x="227" y="-10" />
      <point x="115" y="59" />
      <point x="52" y="178" />
      <point x="52" y="253" type="qcurve" />
      <point x="52" y="323" />
      <point x="115" y="442" />
      <point x="228" y="515" />
    </contour>
  </outline>
</glyph>
<glyph name="d" format="2">
  <unicode hex="0064" />
  <advance width="599" />
  <outline>
    <contour>
      <point x="496" y="740" type="qcurve" />
      <point x="505" y="740" />
      <point x="516" y="728" />
      <point x="516" y="720" type="qcurve" />
      <point x="516" y="20" type="line" />
      <point x="516" y="12" />
      <point x="504" y="0" />
      <point x="496" y="0" type="qcurve" />
      <point x="487" y="0" />
      <point x="476" y="12" />
      <point x="476" y="20" type="qcurve" />
      <point x="476" y="162" type="line" />
      <point x="492" y="184" type="line" />
      <point x="492" y="150" />
      <point x="461" y="81" />
      <point x="404" y="24" />
      <point x="328" y="-10" />
      <point x="284" y="-10" type="qcurve" />
      <point x="218" y="-10" />
      <point x="113" y="59" />
      <point x="52" y="178" />
      <point x="52" y="253" type="qcurve" />
      <point x="52" y="328" />
      <point x="113" y="447" />
      <point x="218" y="515" />
      <point x="284" y="515" type="qcurve" />
      <point x="325" y="515" />
      <point x="400" y="484" />
      <point x="458" y="428" />
      <point x="492" y="353" />
      <point x="492" y="309" type="qcurve" />
      <point x="476" y="334" type="line" />
      <point x="476" y="720" type="line" />
      <point x="476" y="728" />
      <point x="487" y="740" />
    </contour>
    <contour>
      <point x="286" y="28" type="qcurve" />
      <point x="343" y="28" />
      <point x="430" y="86" />
      <point x="480" y="188" />
      <point x="480" y="253" type="qcurve" />
      <point x="480" y="318" />
      <point x="430" y="419" />
      <point x="342" y="477" />
      <point x="286" y="477" type="qcurve" />
      <point x="231" y="477" />
      <point x="143" y="419" />
      <point x="92" y="318" />
      <point x="92" y="253" type="qcurve" />
      <point x="92" y="189" />
      <point x="143" y="87" />
      <point x="231" y="28" />
    </contour>
  </outline>
</glyph>
<glyph name="e" format="2">
  <unicode hex="0065" />
  <advance width="556" />
  <outline>
    <contour>
      <point x="308" y="-10" type="qcurve" />
      <point x="233" y="-10" />
      <point x="118" y="54" />
      <point x="52" y="171" />
      <point x="52" y="250" type="qcurve" />
      <point x="52" y="334" />
      <point x="117" y="452" />
      <point x="220" y="515" />
      <point x="278" y="515" type="qcurve" />
      <point x="320" y="515" />
      <point x="400" y="488" />
      <point x="463" y="431" />
      <point x="502" y="346" />
      <point x="504" y="287" type="qcurve" />
      <point x="504" y="279" />
      <point x="492" y="266" />
      <point x="484" y="266" type="qcurve" />
      <point x="76" y="266" type="line" />
      <point x="70" y="304" type="line" />
      <point x="473" y="304" type="line" />
      <point x="463" y="295" type="line" />
      <point x="463" y="313" type="line" />
      <point x="458" y="366" />
      <point x="401" y="438" />
      <point x="321" y="475" />
      <point x="278" y="475" type="qcurve" />
      <point x="248" y="475" />
      <point x="182" y="448" />
      <point x="126" y="393" />
      <point x="91" y="309" />
      <point x="91" y="253" type="qcurve" />
      <point x="91" y="192" />
      <point x="140" y="90" />
      <point x="237" y="28" />
      <point x="308" y="28" type="qcurve" />
      <point x="342" y="28" />
      <point x="402" y="51" />
      <point x="450" y="89" />
      <point x="465" y="111" type="qcurve" />
      <point x="473" y="120" />
      <point x="482" y="120" type="qcurve" />
      <point x="489" y="120" />
      <point x="499" y="109" />
      <point x="499" y="102" type="qcurve" />
      <point x="499" y="95" />
      <point x="495" y="90" type="qcurve" />
      <point x="464" y="50" />
      <point x="367" y="-10" />
    </contour>
  </outline>
</glyph>
<glyph name="f" format="2">
  <unicode hex="0066" />
  <advance width="334" />
  <outline>
    <contour>
      <point x="239" y="735" type="qcurve" />
      <point x="251" y="735" />
      <point x="284" y="731" />
      <point x="309" y="719" />
      <point x="309" y="707" type="qcurve" />
      <point x="309" y="700" />
      <point x="298" y="687" />
      <point x="290" y="687" type="qcurve" />
      <point x="280" y="687" />
      <point x="252" y="699" />
      <point x="235" y="699" type="qcurve" />
      <point x="215" y="699" />
      <point x="184" y="681" />
      <point x="167" y="644" />
      <point x="167" y="615" type="qcurve" />
      <point x="167" y="20" type="line" />
      <point x="167" y="12" />
      <point x="155" y="0" />
      <point x="147" y="0" type="qcurve" />
      <point x="138" y="0" />
      <point x="127" y="12" />
      <point x="127" y="20" type="qcurve" />
      <point x="127" y="615" type="line" />
      <point x="127" y="677" />
      <point x="193" y="735" />
    </contour>
    <contour>
      <point x="285" y="493" type="line" />
      <point x="293" y="493" />
      <point x="304" y="482" />
      <point x="304" y="474" type="qcurve" />
      <point x="304" y="466" />
      <point x="293" y="455" />
      <point x="285" y="455" type="qcurve" />
      <point x="47" y="455" type="line" />
      <point x="40" y="455" />
      <point x="28" y="467" />
      <point x="28" y="474" type="qcurve" />
      <point x="28" y="483" />
      <point x="40" y="493" />
      <point x="47" y="493" type="qcurve" />
    </contour>
  </outline>
</glyph>
<glyph name="g" format="2">
  <unicode hex="0067" />
  <advance width="619" />
  <outline>
    <contour>
      <point x="294" y="515" type="qcurve" />
      <point x="339" y="515" />
      <point x="417" y="483" />
      <point x="476" y="431" />
      <point x="509" y="371" />
      <point x="509" y="342" type="qcurve" />
      <point x="496" y="379" type="line" />
      <point x="496" y="479" type="line" />
      <point x="496" y="487" />
      <point x="507" y="499" />
      <point x="516" y="499" type="qcurve" />
      <point x="525" y="499" />
      <point x="536" y="487" />
      <point x="536" y="479" type="qcurve" />
      <point x="536" y="49" type="line" />
      <point x="536" y="-28" />
      <point x="473" y="-140" />
      <point x="363" y="-200" />
      <point x="290" y="-200" type="qcurve" />
      <point x="250" y="-200" />
      <point x="169" y="-179" />
      <point x="115" y="-147" />
      <point x="115" y="-129" type="qcurve" />
      <point x="115" y="-121" />
      <point x="124" y="-111" />
      <point x="132" y="-111" type="qcurve" />
      <point x="142" y="-111" />
      <point x="159" y="-133" />
      <point x="181" y="-142" type="qcurve" />
      <point x="190" y="-145" />
      <point x="221" y="-155" />
      <point x="265" y="-162" />
      <point x="292" y="-162" type="qcurve" />
      <point x="387" y="-162" />
      <point x="496" y="-45" />
      <point x="496" y="49" type="qcurve" />
      <point x="496" y="148" type="line" />
      <point x="506" y="147" type="line" />
      <point x="494" y="104" />
      <point x="448" y="44" />
      <point x="389" y="7" />
      <point x="324" y="-10" />
      <point x="294" y="-10" type="qcurve" />
      <point x="225" y="-10" />
      <point x="116" y="59" />
      <point x="52" y="178" />
      <point x="52" y="253" type="qcurve" />
      <point x="52" y="328" />
      <point x="116" y="447" />
      <point x="225" y="515" />
    </contour>
    <contour>
      <point x="296" y="477" type="qcurve" />
      <point x="238" y="477" />
      <point x="145" y="419" />
      <point x="92" y="318" />
      <point x="92" y="253" type="qcurve" />
      <point x="92" y="189" />
      <point x="145" y="87" />
      <point x="238" y="28" />
      <point x="296" y="28" type="qcurve" />
      <point x="354" y="28" />
      <point x="446" y="85" />
      <point x="500" y="186" />
      <point x="500" y="253" type="qcurve" />
      <point x="500" y="320" />
      <point x="446" y="421" />
      <point x="354" y="477" />
    </contour>
  </outline>
</glyph>
<glyph name="h" format="2">
  <unicode hex="0068" />
  <advance width="562" />
  <outline>
    <contour>
      <point x="301" y="505" type="qcurve" />
      <point x="361" y="505" />
      <point x="440" y="453" />
      <point x="479" y="365" />
      <point x="479" y="312" type="qcurve" />
      <point x="479" y="20" type="line" />
      <point x="479" y="12" />
      <point x="467" y="0" />
      <point x="459" y="0" type="qcurve" />
      <point x="450" y="0" />
      <point x="439" y="12" />
      <point x="439" y="20" type="qcurve" />
      <point x="439" y="312" type="line" />
      <point x="439" y="355" />
      <point x="411" y="425" />
      <point x="351" y="467" />
      <point x="301" y="467" type="qcurve" />
      <point x="258" y="467" />
      <point x="176" y="425" />
      <point x="123" y="355" />
      <point x="123" y="312" type="qcurve" />
      <point x="123" y="20" type="line" />
      <point x="123" y="12" />
      <point x="111" y="0" />
      <point x="103" y="0" type="qcurve" />
      <point x="94" y="0" />
      <point x="83" y="12" />
      <point x="83" y="20" type="qcurve" />
      <point x="83" y="720" type="line" />
      <point x="83" y="728" />
      <point x="95" y="740" />
      <point x="103" y="740" type="qcurve" />
      <point x="112" y="740" />
      <point x="123" y="728" />
      <point x="123" y="720" type="qcurve" />
      <point x="123" y="371" type="line" />
      <point x="98" y="323" type="line" />
      <point x="98" y="359" />
      <point x="134" y="425" />
      <point x="193" y="476" />
      <point x="265" y="505" />
    </contour>
  </outline>
</glyph>
<glyph name="k" format="2">
  <unicode hex="006B" />
  <advance width="524" />
  <outline>
    <contour>
      <point x="108" y="0" type="qcurve" />
      <point x="99" y="0" />
      <point x="88" y="12" />
      <point x="88" y="20" type="qcurve" />
      <point x="88" y="720" type="line" />
      <point x="88" y="728" />
      <point x="99" y="740" />
      <point x="108" y="740" type="qcurve" />
      <point x="117" y="740" />
      <point x="128" y="728" />
      <point x="128" y="720" type="qcurve" />
      <point x="128" y="20" type="line" />
      <point x="128" y="12" />
      <point x="117" y="0" />
    </contour>
    <contour>
      <point x="440" y="505" type="qcurve" />
      <point x="448" y="505" />
      <point x="460" y="493" />
      <point x="460" y="484" type="qcurve" />
      <point x="460" y="475" />
      <point x="453" y="469" type="qcurve" />
      <point x="154" y="271" type="line" />
      <point x="123" y="271" type="line" />
      <point x="119" y="298" type="line" />
      <point x="427" y="499" type="line" />
      <point x="433" y="505" />
    </contour>
    <contour>
      <point x="461" y="0" type="qcurve" />
      <point x="453" y="0" />
      <point x="446" y="7" type="qcurve" />
      <point x="124" y="270" type="line" />
      <point x="154" y="296" type="line" />
      <point x="475" y="35" type="line" />
      <point x="481" y="29" />
      <point x="481" y="20" type="qcurve" />
      <point x="481" y="10" />
      <point x="465" y="0" />
    </contour>
  </outline>
</glyph>
<glyph name="l" format="2">
  <unicode hex="006C" />
  <advance width="216" />
  <outline>
    <contour>
      <point x="128" y="20" type="line" />
      <point x="128" y="12" />
      <point x="116" y="0" />
      <point x="108" y="0" type="qcurve" />
      <point x="99" y="0" />
      <point x="88" y="12" />
      <point x="88" y="20" type="qcurve" />
      <point x="88" y="720" type="line" />
      <point x="88" y="728" />
      <point x="100" y="740" />
      <point x="108" y="740" type="qcurve" />
      <point x="117" y="740" />
      <point x="128" y="728" />
      <point x="128" y="720" type="qcurve" />
    </contour>
  </outline>
</glyph>
<glyph name="m" format="2">
  <unicode hex="006D" />
  <advance width="909" />
  <outline>
    <contour>
      <point x="296" y="505" type="qcurve" />
      <point x="352" y="505" />
      <point x="445" y="444" />
      <point x="462" y="379" type="qcurve" />
      <point x="449" y="370" type="line" />
      <point x="454" y="389" type="line" />
      <point x="467" y="422" />
      <point x="532" y="474" />
      <point x="613" y="505" />
      <point x="651" y="505" type="qcurve" />
      <point x="711" y="505" />
      <point x="789" y="453" />
      <point x="826" y="366" />
      <point x="826" y="311" type="qcurve" />
      <point x="826" y="20" type="line" />
      <point x="826" y="12" />
      <point x="815" y="0" />
      <point x="806" y="0" type="qcurve" />
      <point x="797" y="0" />
      <point x="786" y="12" />
      <point x="786" y="20" type="qcurve" />
      <point x="786" y="307" type="line" />
      <point x="786" y="351" />
      <point x="757" y="424" />
      <point x="696" y="467" />
      <point x="647" y="467" type="qcurve" />
      <point x="604" y="467" />
      <point x="522" y="424" />
      <point x="469" y="351" />
      <point x="469" y="307" type="qcurve" />
      <point x="469" y="20" type="line" />
      <point x="469" y="12" />
      <point x="458" y="0" />
      <point x="449" y="0" type="qcurve" />
      <point x="440" y="0" />
      <point x="429" y="12" />
      <point x="429" y="20" type="qcurve" />
      <point x="429" y="312" type="line" />
      <point x="429" y="355" />
      <point x="402" y="425" />
      <point x="344" y="467" />
      <point x="296" y="467" type="qcurve" />
      <point x="254" y="467" />
      <point x="175" y="425" />
      <point x="123" y="355" />
      <point x="123" y="312" type="qcurve" />
      <point x="123" y="20" type="line" />
      <point x="123" y="12" />
      <point x="111" y="0" />
      <point x="103" y="0" type="qcurve" />
      <point x="94" y="0" />
      <point x="83" y="12" />
      <point x="83" y="20" type="qcurve" />
      <point x="83" y="479" type="line" />
      <point x="83" y="487" />
      <point x="95" y="499" />
      <point x="103" y="499" type="qcurve" />
      <point x="112" y="499" />
      <point x="123" y="487" />
      <point x="123" y="479" type="qcurve" />
      <point x="123" y="370" type="line" />
      <point x="93" y="319" type="line" />
      <point x="93" y="354" />
      <point x="127" y="420" />
      <point x="184" y="473" />
      <point x="257" y="505" />
    </contour>
  </outline>
</glyph>
<glyph name="n" format="2">
  <unicode hex="006E" />
  <advance width="572" />
  <outline>
    <contour>
      <point x="310" y="515" type="qcurve" />
      <point x="373" y="515" />
      <point x="452" y="465" />
      <point x="489" y="379" />
      <point x="489" y="326" type="qcurve" />
      <point x="489" y="20" type="line" />
      <point x="489" y="12" />
      <point x="477" y="0" />
      <point x="469" y="0" type="qcurve" />
      <point x="460" y="0" />
      <point x="449" y="12" />
      <point x="449" y="20" type="qcurve" />
      <point x="449" y="322" type="line" />
      <point x="449" y="365" />
      <point x="420" y="435" />
      <point x="357" y="477" />
      <point x="306" y="477" type="qcurve" />
      <point x="262" y="477" />
      <point x="178" y="435" />
      <point x="123" y="365" />
      <point x="123" y="322" type="qcurve" />
      <point x="123" y="20" type="line" />
      <point x="123" y="12" />
      <point x="111" y="0" />
      <point x="103" y="0" type="qcurve" />
      <point x="94" y="0" />
      <point x="83" y="12" />
      <point x="83" y="20" type="qcurve" />
      <point x="83" y="479" type="line" />
      <point x="83" y="487" />
      <point x="95" y="499" />
      <point x="103" y="499" type="qcurve" />
      <point x="112" y="499" />
      <point x="123" y="487" />
      <point x="123" y="479" type="qcurve" />
      <point x="123" y="381" type="line" />
      <point x="98" y="333" type="line" />
      <point x="98" y="369" />
      <point x="136" y="435" />
      <point x="198" y="486" />
      <point x="273" y="515" />
    </contour>
  </outline>
</glyph>
<glyph name="o" format="2">
  <unicode hex="006F" />
  <advance width="597" />
  <outline>
    <contour>
      <point x="545" y="252" type="qcurve" />
      <point x="545" y="178" />
      <point x="481" y="59" />
      <point x="370" y="-10" />
      <point x="299" y="-10" type="qcurve" />
      <point x="229" y="-10" />
      <point x="117" y="59" />
      <point x="52" y="178" />
      <point x="52" y="252" type="qcurve" />
      <point x="52" y="327" />
      <point x="117" y="446" />
      <point x="229" y="515" />
      <point x="299" y="515" type="qcurve" />
      <point x="370" y="515" />
      <point x="481" y="446" />
      <point x="545" y="327" />
    </contour>
    <contour>
      <point x="505" y="252" type="qcurve" />
      <point x="505" y="317" />
      <point x="452" y="418" />
      <point x="359" y="477" />
      <point x="299" y="477" type="qcurve" />
      <point x="240" y="477" />
      <point x="146" y="418" />
      <point x="92" y="317" />
      <point x="92" y="252" type="qcurve" />
      <point x="92" y="188" />
      <point x="146" y="87" />
      <point x="240" y="28" />
      <point x="299" y="28" type="qcurve" />
      <point x="359" y="28" />
      <point x="452" y="87" />
      <point x="505" y="188" />
    </contour>
  </outline>
</glyph>
<glyph name="p" format="2">
  <unicode hex="0070" />
  <advance width="599" />
  <outline>
    <contour>
      <point x="315" y="505" type="qcurve" />
      <point x="382" y="505" />
      <point x="486" y="439" />
      <point x="547" y="324" />
      <point x="547" y="250" type="qcurve" />
      <point x="547" y="177" />
      <point x="486" y="61" />
      <point x="381" y="-6" />
      <point x="315" y="-6" type="qcurve" />
      <point x="282" y="-6" />
      <point x="221" y="13" />
      <point x="169" y="48" />
      <point x="126" y="100" />
      <point x="110" y="133" type="qcurve" />
      <point x="123" y="147" type="line" />
      <point x="123" y="-180" type="line" />
      <point x="123" y="-188" />
      <point x="112" y="-200" />
      <point x="103" y="-200" type="qcurve" />
      <point x="95" y="-200" />
      <point x="83" y="-188" />
      <point x="83" y="-180" type="qcurve" />
      <point x="83" y="485" type="line" />
      <point x="83" y="493" />
      <point x="94" y="505" />
      <point x="103" y="505" type="qcurve" />
      <point x="112" y="505" />
      <point x="123" y="493" />
      <point x="123" y="485" type="qcurve" />
      <point x="123" y="357" type="line" />
      <point x="110" y="364" type="line" />
      <point x="124" y="401" />
      <point x="166" y="455" />
      <point x="220" y="489" />
      <point x="282" y="505" />
    </contour>
    <contour>
      <point x="313" y="467" type="qcurve" />
      <point x="256" y="467" />
      <point x="169" y="411" />
      <point x="119" y="314" />
      <point x="119" y="250" type="qcurve" />
      <point x="119" y="187" />
      <point x="169" y="88" />
      <point x="256" y="32" />
      <point x="313" y="32" type="qcurve" />
      <point x="369" y="32" />
      <point x="456" y="88" />
      <point x="507" y="187" />
      <point x="507" y="250" type="qcurve" />
      <point x="507" y="313" />
      <point x="456" y="411" />
      <point x="369" y="467" />
    </contour>
  </outline>
</glyph>
<glyph name="r" format="2">
  <unicode hex="0072" />
  <advance width="368" />
  <outline>
    <contour>
      <point x="103" y="0" type="qcurve" />
      <point x="94" y="0" />
      <point x="83" y="12" />
      <point x="83" y="20" type="qcurve" />
      <point x="83" y="479" type="line" />
      <point x="83" y="487" />
      <point x="95" y="499" />
      <point x="103" y="499" type="qcurve" />
      <point x="112" y="499" />
      <point x="123" y="487" />
      <point x="123" y="479" type="qcurve" />
      <point x="123" y="310" type="line" />
      <point x="106" y="284" type="line" />
      <point x="106" y="323" />
      <point x="133" y="403" />
      <point x="185" y="472" />
      <point x="260" y="515" />
      <point x="309" y="515" type="qcurve" />
      <point x="323" y="515" />
      <point x="355" y="507" />
      <point x="355" y="492" type="qcurve" />
      <point x="355" y="483" />
      <point x="345" y="471" />
      <point x="337" y="471" type="qcurve" />
      <point x="331" y="471" />
      <point x="314" y="480" />
      <point x="298" y="480" type="qcurve" />
      <point x="272" y="480" />
      <point x="235" y="458" type="qcurve" />
      <point x="204" y="439" />
      <point x="153" y="366" />
      <point x="123" y="282" />
      <point x="123" y="247" type="qcurve" />
      <point x="123" y="20" type="line" />
      <point x="123" y="12" />
      <point x="111" y="0" />
    </contour>
  </outline>
</glyph>
<glyph name="s" format="2">
  <unicode hex="0073" />
  <advance width="465" />
  <outline>
    <contour>
      <point x="55" y="80" type="qcurve" />
      <point x="48" y="92" />
      <point x="49" y="107" />
      <point x="56" y="112" type="qcurve" />
      <point x="61" y="117" />
      <point x="78" y="116" />
      <point x="84" y="109" type="qcurve" />
      <point x="110" y="72" />
      <point x="191" y="26" />
      <point x="246" y="26" type="qcurve" />
      <point x="279" y="26" />
      <point x="340" y="48" />
      <point x="379" y="92" />
      <point x="379" y="124" type="qcurve" />
      <point x="379" y="158" />
      <point x="341" y="199" />
      <point x="281" y="223" />
      <point x="248" y="231" type="qcurve" />
      <point x="213" y="240" />
      <point x="150" y="263" />
      <point x="102" y="298" />
      <point x="74" y="346" />
      <point x="74" y="379" type="qcurve" />
      <point x="74" y="418" />
      <point x="116" y="480" />
      <point x="192" y="515" />
      <point x="242" y="515" type="qcurve" />
      <point x="266" y="515" />
      <point x="320" y="503" />
      <point x="374" y="474" />
      <point x="397" y="448" type="qcurve" />
      <point x="405" y="442" />
      <point x="404" y="425" />
      <point x="397" y="418" type="qcurve" />
      <point x="391" y="414" />
      <point x="377" y="414" />
      <point x="372" y="420" type="qcurve" />
      <point x="346" y="449" />
      <point x="277" y="477" />
      <point x="238" y="477" type="qcurve" />
      <point x="205" y="477" />
      <point x="148" y="455" />
      <point x="112" y="412" />
      <point x="112" y="379" type="qcurve" />
      <point x="114" y="348" />
      <point x="153" y="308" />
      <point x="218" y="282" />
      <point x="259" y="271" type="qcurve" />
      <point x="292" y="263" />
      <point x="349" y="242" />
      <point x="392" y="210" />
      <point x="417" y="162" />
      <point x="417" y="126" type="qcurve" />
      <point x="417" y="84" />
      <point x="372" y="23" />
      <point x="293" y="-10" />
      <point x="242" y="-10" type="qcurve" />
      <point x="190" y="-10" />
      <point x="94" y="32" />
    </contour>
  </outline>
</glyph>
<glyph name="t" format="2">
  <unicode hex="0074" />
  <advance width="334" />
  <outline>
    <contour>
      <point x="37" y="493" type="qcurve" />
      <point x="275" y="493" type="line" />
      <point x="283" y="493" />
      <point x="294" y="481" />
      <point x="294" y="474" type="qcurve" />
      <point x="294" y="466" />
      <point x="283" y="455" />
      <point x="275" y="455" type="qcurve" />
      <point x="37" y="455" type="line" />
      <point x="30" y="455" />
      <point x="18" y="467" />
      <point x="18" y="474" type="qcurve" />
      <point x="18" y="482" />
      <point x="30" y="493" />
    </contour>
    <contour>
      <point x="137" y="650" type="qcurve" />
      <point x="146" y="650" />
      <point x="157" y="638" />
      <point x="157" y="630" type="qcurve" />
      <point x="157" y="109" type="line" />
      <point x="157" y="76" />
      <point x="184" y="45" />
      <point x="220" y="36" />
      <point x="232" y="36" type="qcurve" />
      <point x="249" y="36" />
      <point x="275" y="40" />
      <point x="282" y="40" type="qcurve" />
      <point x="289" y="40" />
      <point x="299" y="29" />
      <point x="299" y="22" type="qcurve" />
      <point x="299" y="13" />
      <point x="276" y="0" />
      <point x="243" y="0" type="qcurve" />
      <point x="237" y="0" />
      <point x="196" y="1" />
      <point x="151" y="18" />
      <point x="117" y="63" />
      <point x="117" y="107" type="qcurve" />
      <point x="117" y="630" type="line" />
      <point x="117" y="638" />
      <point x="129" y="650" />
    </contour>
  </outline>
</glyph>
<glyph name="u" format="2">
  <unicode hex="0075" />
  <advance width="563" />
  <outline>
    <contour>
      <point x="426" y="63" type="qcurve" />
      <point x="425" y="62" />
      <point x="421" y="59" type="qcurve" />
      <point x="353" y="-6" />
      <point x="281" y="-6" type="qcurve" />
      <point x="192" y="-6" />
      <point x="83" y="91" />
      <point x="83" y="188" type="qcurve" />
      <point x="83" y="479" type="line" />
      <point x="83" y="487" />
      <point x="95" y="499" />
      <point x="103" y="499" type="qcurve" />
      <point x="112" y="499" />
      <point x="123" y="487" />
      <point x="123" y="479" type="qcurve" />
      <point x="123" y="188" type="line" />
      <point x="123" y="112" />
      <point x="208" y="32" />
      <point x="281" y="32" type="qcurve" />
      <point x="343" y="32" />
      <point x="398" y="92" type="qcurve" />
      <point x="440" y="136" />
      <point x="440" y="188" type="qcurve" />
      <point x="440" y="479" type="line" />
      <point x="440" y="487" />
      <point x="451" y="499" />
      <point x="460" y="499" type="qcurve" />
      <point x="469" y="499" />
      <point x="480" y="487" />
      <point x="480" y="479" type="qcurve" />
      <point x="480" y="209" type="line" />
      <point x="480" y="188" type="line" />
      <point x="480" y="146" type="line" />
      <point x="480" y="15" type="line" />
      <point x="480" y="7" />
      <point x="468" y="-5" />
      <point x="460" y="-5" type="qcurve" />
      <point x="451" y="-5" />
      <point x="440" y="7" />
      <point x="440" y="15" type="qcurve" />
      <point x="440" y="120" type="line" />
      <point x="453" y="95" type="line" />
      <point x="453" y="93" />
    </contour>
  </outline>
</glyph>
<glyph name="v" format="2">
  <unicode hex="0076" />
  <advance width="518" />
  <outline>
    <contour>
      <point x="59" y="517" type="qcurve" />
      <point x="64" y="517" />
      <point x="75" y="510" />
      <point x="77" y="504" type="qcurve" />
      <point x="262" y="61" type="line" />
      <point x="252" y="54" type="line" />
      <point x="440" y="504" type="line" />
      <point x="445" y="517" />
      <point x="461" y="517" type="qcurve" />
      <point x="466" y="517" />
      <point x="480" y="509" />
      <point x="480" y="501" type="qcurve" />
      <point x="480" y="496" />
      <point x="478" y="491" />
      <point x="477" y="489" type="qcurve" />
      <point x="278" y="13" type="line" />
      <point x="273" y="0" />
      <point x="259" y="0" type="qcurve" />
      <point x="253" y="0" />
      <point x="242" y="7" />
      <point x="240" y="13" type="qcurve" />
      <point x="40" y="488" type="line" />
      <point x="39" y="490" />
      <point x="38" y="495" />
      <point x="38" y="497" type="qcurve" />
      <point x="38" y="505" />
      <point x="48" y="517" />
    </contour>
  </outline>
</glyph>
<glyph name="w" format="2">
  <unicode hex="0077" />
  <advance width="746" />
  <outline>
    <contour>
      <point x="687" y="517" type="qcurve" />
      <point x="695" y="517" />
      <point x="708" y="508" />
      <point x="708" y="498" type="qcurve" />
      <point x="708" y="497" />
      <point x="707" y="490" />
      <point x="706" y="488" type="qcurve" />
      <point x="551" y="13" type="line" />
      <point x="548" y="7" />
      <point x="538" y="0" />
      <point x="532" y="0" type="qcurve" />
      <point x="520" y="0" />
      <point x="513" y="13" type="qcurve" />
      <point x="359" y="360" type="line" />
      <point x="374" y="355" type="line" />
      <point x="238" y="13" type="line" />
      <point x="233" y="0" />
      <point x="219" y="0" type="qcurve" />
      <point x="213" y="0" />
      <point x="202" y="7" />
      <point x="200" y="13" type="qcurve" />
      <point x="40" y="488" type="line" />
      <point x="38" y="494" />
      <point x="38" y="498" type="qcurve" />
      <point x="38" y="507" />
      <point x="50" y="517" />
      <point x="59" y="517" type="qcurve" />
      <point x="65" y="517" />
      <point x="75" y="510" />
      <point x="77" y="504" type="qcurve" />
      <point x="226" y="45" type="line" />
      <point x="209" y="45" type="line" />
      <point x="351" y="397" type="line" />
      <point x="356" y="410" />
      <point x="370" y="410" type="qcurve" />
      <point x="376" y="410" />
      <point x="387" y="403" />
      <point x="389" y="397" type="qcurve" />
      <point x="542" y="44" type="line" />
      <point x="522" y="44" type="line" />
      <point x="669" y="504" type="line" />
      <point x="674" y="517" />
    </contour>
  </outline>
</glyph>
<glyph name="x" format="2">
  <unicode hex="0078" />
  <advance width="483" />
  <outline>
    <contour>
      <point x="61" y="510" type="qcurve" />
      <point x="71" y="510" />
      <point x="77" y="501" type="qcurve" />
      <point x="438" y="28" type="line" />
      <point x="442" y="23" />
      <point x="442" y="16" type="qcurve" />
      <point x="442" y="8" />
      <point x="431" y="-4" />
      <point x="423" y="-4" type="qcurve" />
      <point x="414" y="-4" />
      <point x="406" y="5" type="qcurve" />
      <point x="44" y="477" type="line" />
      <point x="40" y="482" />
      <point x="40" y="489" type="qcurve" />
      <point x="40" y="498" />
      <point x="53" y="510" />
    </contour>
    <contour>
      <point x="406" y="501" type="line" />
      <point x="414" y="510" />
      <point x="423" y="510" type="qcurve" />
      <point x="433" y="510" />
      <point x="442" y="500" />
      <point x="442" y="493" type="qcurve" />
      <point x="442" y="490" />
      <point x="439" y="483" />
      <point x="437" y="480" type="qcurve" />
      <point x="77" y="4" type="line" />
      <point x="71" y="-4" />
      <point x="61" y="-4" type="qcurve" />
      <point x="54" y="-4" />
      <point x="42" y="5" />
      <point x="42" y="15" type="qcurve" />
      <point x="42" y="22" />
      <point x="46" y="27" type="qcurve" />
    </contour>
  </outline>
</glyph>
<glyph name="y" format="2">
  <unicode hex="0079" />
  <advance width="518" />
  <outline>
    <contour>
      <point x="238" y="18" type="line" />
      <point x="40" y="488" type="line" />
      <point x="39" y="490" />
      <point x="38" y="495" />
      <point x="38" y="497" type="qcurve" />
      <point x="38" y="505" />
      <point x="48" y="517" />
      <point x="59" y="517" type="qcurve" />
      <point x="64" y="517" />
      <point x="75" y="510" />
      <point x="77" y="504" type="qcurve" />
      <point x="262" y="61" type="line" />
      <point x="252" y="54" type="line" />
      <point x="440" y="504" type="line" />
      <point x="445" y="517" />
      <point x="461" y="517" type="qcurve" />
      <point x="466" y="517" />
      <point x="480" y="509" />
      <point x="480" y="501" type="qcurve" />
      <point x="480" y="496" />
      <point x="478" y="491" />
      <point x="477" y="489" type="qcurve" />
      <point x="283" y="26" type="line" />
      <point x="242" y="-69" type="line" />
      <point x="229" y="-98" />
      <point x="204" y="-134" type="qcurve" />
      <point x="182" y="-165" />
      <point x="149" y="-182" type="qcurve" />
      <point x="118" y="-198" />
      <point x="90" y="-198" type="qcurve" />
      <point x="80" y="-198" />
      <point x="76" y="-192" type="qcurve" />
      <point x="71" y="-185" />
      <point x="71" y="-180" type="qcurve" />
      <point x="71" y="-178" type="line" />
      <point x="71" y="-170" />
      <point x="77" y="-165" type="qcurve" />
      <point x="84" y="-160" />
      <point x="89" y="-159" type="qcurve" />
      <point x="110" y="-155" />
      <point x="133" y="-144" type="qcurve" />
      <point x="175" y="-124" />
      <point x="205" y="-53" type="qcurve" />
      <point x="232" y="8" type="line" />
    </contour>
  </outline>
</glyph>
<glyph name="z" format="2">
  <unicode hex="007A" />
  <advance width="477" />
  <outline>
    <contour>
      <point x="397" y="38" type="line" />
      <point x="405" y="38" />
      <point x="417" y="26" />
      <point x="417" y="19" type="qcurve" />
      <point x="417" y="11" />
      <point x="405" y="0" />
      <point x="397" y="0" type="qcurve" />
      <point x="71" y="0" type="line" />
      <point x="61" y="0" />
      <point x="50" y="15" />
      <point x="50" y="20" type="qcurve" />
      <point x="50" y="24" />
      <point x="53" y="30" />
      <point x="55" y="33" type="qcurve" />
      <point x="377" y="485" type="line" />
      <point x="382" y="477" type="line" />
      <point x="101" y="477" type="line" />
      <point x="93" y="477" />
      <point x="81" y="489" />
      <point x="81" y="496" type="qcurve" />
      <point x="81" y="504" />
      <point x="93" y="515" />
      <point x="101" y="515" type="qcurve" />
      <point x="407" y="515" type="line" />
      <point x="415" y="515" />
      <point x="426" y="503" />
      <point x="427" y="495" type="qcurve" />
      <point x="427" y="491" />
      <point x="424" y="484" />
      <point x="422" y="481" type="qcurve" />
      <point x="102" y="33" type="line" />
      <point x="87" y="38" type="line" />
    </contour>
  </outline>
</glyph>
<glyph name="braceleft" format="2">
  <unicode hex="007B" />
  <advance width="436" />
  <outline>
    <contour>
      <point x="369" y="-190" type="qcurve" />
      <point x="366" y="-190" />
      <point x="361" y="-189" type="qcurve" />
      <point x="282" y="-171" />
      <point x="241" y="-144" type="qcurve" />
      <point x="199" y="-117" />
      <point x="171" y="-30" />
      <point x="171" y="20" type="qcurve" />
      <point x="171" y="109" type="line" />
      <point x="171" y="158" />
      <point x="150" y="230" />
      <point x="98" y="276" />
      <point x="51" y="276" type="qcurve" />
      <point x="45" y="276" type="line" />
      <point x="37" y="276" />
      <point x="25" y="288" />
      <point x="25" y="296" type="qcurve" />
      <point x="25" y="304" />
      <point x="37" y="314" />
      <point x="45" y="314" type="qcurve" />
      <point x="51" y="314" type="line" />
      <point x="100" y="314" />
      <point x="152" y="360" />
      <point x="171" y="442" />
      <point x="171" y="481" type="qcurve" />
      <point x="171" y="570" type="line" />
      <point x="171" y="622" />
      <point x="201" y="689" />
      <point x="253" y="730" />
      <point x="321" y="757" />
      <point x="360" y="768" type="qcurve" />
      <point x="377" y="773" />
      <point x="386" y="759" />
      <point x="386" y="754" type="qcurve" />
      <point x="386" y="748" />
      <point x="378" y="738" />
      <point x="370" y="736" type="qcurve" />
      <point x="303" y="716" />
      <point x="235" y="674" />
      <point x="211" y="613" />
      <point x="211" y="564" type="qcurve" />
      <point x="211" y="479" type="line" />
      <point x="211" y="415" />
      <point x="165" y="306" />
      <point x="121" y="295" type="qcurve" />
      <point x="119" y="296" type="line" />
      <point x="166" y="284" />
      <point x="211" y="186" />
      <point x="211" y="111" type="qcurve" />
      <point x="211" y="26" type="line" />
      <point x="211" y="-22" />
      <point x="234" y="-95" />
      <point x="303" y="-137" />
      <point x="370" y="-156" type="qcurve" />
      <point x="388" y="-161" />
      <point x="385" y="-179" type="qcurve" />
      <point x="384" y="-183" />
      <point x="375" y="-190" />
    </contour>
  </outline>
</glyph>
<glyph name="bar" format="2">
  <unicode hex="007C" />
  <advance width="190" />
  <outline>
    <contour>
      <point x="115" y="-180" type="line" />
      <point x="115" y="-188" />
      <point x="104" y="-200" />
      <point x="95" y="-200" type="qcurve" />
      <point x="86" y="-200" />
      <point x="75" y="-188" />
      <point x="75" y="-180" type="qcurve" />
      <point x="75" y="760" type="line" />
      <point x="75" y="768" />
      <point x="86" y="780" />
      <point x="95" y="780" type="qcurve" />
      <point x="104" y="780" />
      <point x="115" y="768" />
      <point x="115" y="760" type="qcurve" />
    </contour>
  </outline>
</glyph>
<glyph name="braceright" format="2">
  <unicode hex="007D" />
  <advance width="436" />
  <outline>
    <contour>
      <point x="68" y="-190" type="qcurve" />
      <point x="58" y="-190" />
      <point x="50" y="-179" />
      <point x="50" y="-174" type="qcurve" />
      <point x="50" y="-168" />
      <point x="59" y="-158" />
      <point x="66" y="-156" type="qcurve" />
      <point x="135" y="-135" />
      <point x="168" y="-115" type="qcurve" />
      <point x="202" y="-94" />
      <point x="214" y="-57" type="qcurve" />
      <point x="225" y="-21" />
      <point x="225" y="27" type="qcurve" />
      <point x="225" y="111" type="line" />
      <point x="225" y="186" />
      <point x="249" y="236" type="qcurve" />
      <point x="271" y="285" />
      <point x="315" y="295" type="qcurve" />
      <point x="317" y="294" type="line" />
      <point x="270" y="306" />
      <point x="247" y="361" type="qcurve" />
      <point x="225" y="413" />
      <point x="225" y="479" type="qcurve" />
      <point x="225" y="564" type="line" />
      <point x="225" y="610" />
      <point x="213" y="644" type="qcurve" />
      <point x="201" y="675" />
      <point x="134" y="718" />
      <point x="66" y="736" type="qcurve" />
      <point x="44" y="742" />
      <point x="51" y="759" type="qcurve" />
      <point x="53" y="764" />
      <point x="61" y="770" />
      <point x="67" y="770" type="qcurve" />
      <point x="69" y="770" />
      <point x="73" y="769" />
      <point x="74" y="769" type="qcurve" />
      <point x="155" y="752" />
      <point x="238" y="697" />
      <point x="252" y="659" type="qcurve" />
      <point x="265" y="623" />
      <point x="265" y="570" type="qcurve" />
      <point x="265" y="481" type="line" />
      <point x="265" y="446" />
      <point x="277" y="401" type="qcurve" />
      <point x="287" y="361" />
      <point x="314" y="337" type="qcurve" />
      <point x="339" y="314" />
      <point x="385" y="314" type="qcurve" />
      <point x="391" y="314" type="line" />
      <point x="399" y="314" />
      <point x="411" y="302" />
      <point x="411" y="294" type="qcurve" />
      <point x="411" y="287" />
      <point x="399" y="276" />
      <point x="391" y="276" type="qcurve" />
      <point x="385" y="276" type="line" />
      <point x="337" y="276" />
      <point x="310" y="252" type="qcurve" />
      <point x="284" y="229" />
      <point x="275" y="195" type="qcurve" />
      <point x="265" y="159" />
      <point x="265" y="109" type="qcurve" />
      <point x="265" y="20" type="line" />
      <point x="265" y="-18" />
      <point x="260" y="-43" type="qcurve" />
      <point x="258" y="-51" />
      <point x="256" y="-59" type="qcurve" />
      <point x="250" y="-77" />
      <point x="241" y="-92" type="qcurve" />
      <point x="234" y="-103" />
      <point x="225" y="-112" type="qcurve" />
      <point x="210" y="-127" />
      <point x="197" y="-138" type="qcurve" />
      <point x="181" y="-150" />
      <point x="166" y="-156" type="qcurve" />
      <point x="85" y="-190" />
      <point x="72" y="-190" type="qcurve" />
      <point x="70" y="-190" />
    </contour>
  </outline>
</glyph>
<glyph name="asciitilde" format="2">
  <unicode hex="007E" />
  <advance width="437" />
  <outline>
    <contour>
      <point x="307" y="283" type="qcurve" />
      <point x="287" y="283" />
      <point x="241" y="299" />
      <point x="192" y="320" />
      <point x="147" y="336" />
      <point x="129" y="336" type="qcurve" />
      <point x="114" y="336" />
      <point x="92" y="317" />
      <point x="85" y="294" type="qcurve" />
      <point x="83" y="287" />
      <point x="72" y="280" />
      <point x="66" y="280" type="qcurve" />
      <point x="59" y="280" />
      <point x="50" y="286" />
      <point x="50" y="294" type="qcurve" />
      <point x="50" y="309" />
      <point x="67" y="347" />
      <point x="104" y="376" />
      <point x="133" y="376" type="qcurve" />
      <point x="154" y="376" />
      <point x="203" y="359" />
      <point x="251" y="338" />
      <point x="297" y="321" />
      <point x="315" y="321" type="qcurve" />
      <point x="330" y="321" />
      <point x="348" y="344" />
      <point x="351" y="364" type="qcurve" />
      <point x="352" y="372" />
      <point x="362" y="382" />
      <point x="370" y="382" type="qcurve" />
      <point x="376" y="382" />
      <point x="387" y="375" />
      <point x="387" y="369" type="qcurve" />
      <point x="387" y="332" />
      <point x="345" y="283" />
    </contour>
  </outline>
</glyph>
<glyph name="exclamdown" format="2">
  <unicode hex="00A1" />
  <advance width="158" />
  <outline>
    <contour>
      <point x="79" y="314" type="qcurve" />
      <point x="93" y="314" />
      <point x="94" y="298" type="qcurve" />
      <point x="99" y="-168" type="line" />
      <point x="99" y="-181" />
      <point x="92" y="-199" />
      <point x="79" y="-199" type="qcurve" />
      <point x="66" y="-199" />
      <point x="59" y="-181" />
      <point x="59" y="-168" type="qcurve" />
      <point x="64" y="298" type="line" />
      <point x="65" y="314" />
    </contour>
    <contour>
      <point x="81" y="501" type="line" />
      <point x="95" y="501" />
      <point x="108" y="484" />
      <point x="108" y="470" type="qcurve" />
      <point x="108" y="447" type="line" />
      <point x="108" y="434" />
      <point x="95" y="416" />
      <point x="81" y="416" type="qcurve" />
      <point x="77" y="416" type="line" />
      <point x="64" y="416" />
      <point x="50" y="434" />
      <point x="50" y="447" type="qcurve" />
      <point x="50" y="470" type="line" />
      <point x="50" y="484" />
      <point x="64" y="501" />
      <point x="77" y="501" type="qcurve" />
    </contour>
  </outline>
</glyph>
<glyph name="cent" format="2">
  <unicode hex="00A2" />
  <advance width="513" />
  <outline>
    <contour>
      <point x="307" y="20" type="line" />
      <point x="307" y="12" />
      <point x="296" y="0" />
      <point x="287" y="0" type="qcurve" />
      <point x="278" y="0" />
      <point x="267" y="12" />
      <point x="267" y="20" type="qcurve" />
      <point x="267" y="96" type="line" />
      <point x="267" y="115" type="line" />
      <point x="267" y="578" type="line" />
      <point x="267" y="592" type="line" />
      <point x="267" y="665" type="line" />
      <point x="267" y="673" />
      <point x="278" y="685" />
      <point x="287" y="685" type="qcurve" />
      <point x="296" y="685" />
      <point x="307" y="673" />
      <point x="307" y="665" type="qcurve" />
      <point x="307" y="596" type="line" />
      <point x="307" y="582" type="line" />
      <point x="307" y="103" type="line" />
      <point x="307" y="92" type="line" />
    </contour>
    <contour>
      <point x="296" y="80" type="qcurve" />
      <point x="223" y="80" />
      <point x="111" y="149" />
      <point x="48" y="268" />
      <point x="48" y="343" type="qcurve" />
      <point x="48" y="413" />
      <point x="111" y="532" />
      <point x="224" y="605" />
      <point x="300" y="605" type="qcurve" />
      <point x="345" y="605" />
      <point x="424" y="585" />
      <point x="473" y="552" />
      <point x="473" y="534" type="qcurve" />
      <point x="473" y="527" />
      <point x="462" y="514" />
      <point x="454" y="514" type="qcurve" />
      <point x="443" y="514" />
      <point x="430" y="526" />
      <point x="416" y="543" />
      <point x="401" y="550" type="qcurve" />
      <point x="387" y="557" />
      <point x="336" y="567" />
      <point x="299" y="567" type="qcurve" />
      <point x="241" y="567" />
      <point x="145" y="507" />
      <point x="88" y="406" />
      <point x="88" y="343" type="qcurve" />
      <point x="88" y="279" />
      <point x="141" y="177" />
      <point x="236" y="118" />
      <point x="299" y="118" type="qcurve" />
      <point x="344" y="118" />
      <point x="391" y="135" />
      <point x="408" y="145" type="qcurve" />
      <point x="429" y="157" />
      <point x="445" y="179" />
      <point x="456" y="179" type="qcurve" />
      <point x="464" y="179" />
      <point x="473" y="169" />
      <point x="473" y="161" type="qcurve" />
      <point x="473" y="149" />
      <point x="429" y="110" />
      <point x="350" y="80" />
    </contour>
  </outline>
</glyph>
<glyph name="currency" format="2">
  <unicode hex="00A4" />
  <advance width="464" />
  <outline>
    <contour>
      <point x="68" y="467" type="qcurve" />
      <point x="75" y="467" />
      <point x="81" y="461" type="qcurve" />
      <point x="141" y="408" type="line" />
      <point x="141" y="408" />
      <point x="129" y="394" />
      <point x="117" y="380" />
      <point x="117" y="380" type="qcurve" />
      <point x="57" y="435" type="line" />
      <point x="50" y="442" />
      <point x="50" y="448" type="qcurve" />
      <point x="50" y="453" />
      <point x="55" y="461" />
      <point x="64" y="467" />
    </contour>
    <contour>
      <point x="396" y="467" type="qcurve" />
      <point x="400" y="467" />
      <point x="408" y="461" />
      <point x="414" y="453" />
      <point x="414" y="448" type="qcurve" />
      <point x="414" y="442" />
      <point x="407" y="435" type="qcurve" />
      <point x="348" y="382" type="line" />
      <point x="348" y="382" />
      <point x="337" y="396" />
      <point x="326" y="409" />
      <point x="326" y="409" type="qcurve" />
      <point x="383" y="461" type="line" />
      <point x="389" y="467" />
    </contour>
    <contour>
      <point x="396" y="131" type="qcurve" />
      <point x="389" y="131" />
      <point x="383" y="137" type="qcurve" />
      <point x="326" y="189" type="line" />
      <point x="326" y="189" />
      <point x="338" y="203" />
      <point x="350" y="216" />
      <point x="350" y="216" type="qcurve" />
      <point x="407" y="163" type="line" />
      <point x="414" y="156" />
      <point x="414" y="150" type="qcurve" />
      <point x="414" y="146" />
      <point x="409" y="137" />
      <point x="401" y="131" />
    </contour>
    <contour>
      <point x="68" y="131" type="qcurve" />
      <point x="64" y="131" />
      <point x="56" y="137" />
      <point x="50" y="146" />
      <point x="50" y="150" type="qcurve" />
      <point x="50" y="156" />
      <point x="57" y="163" type="qcurve" />
      <point x="118" y="220" type="line" />
      <point x="118" y="220" />
      <point x="131" y="207" />
      <point x="143" y="193" />
      <point x="143" y="193" type="qcurve" />
      <point x="81" y="137" type="line" />
      <point x="75" y="131" />
    </contour>
    <contour>
      <point x="232" y="144" type="qcurve" />
      <point x="191" y="144" />
      <point x="123" y="186" />
      <point x="83" y="256" />
      <point x="83" y="299" type="qcurve" />
      <point x="83" y="342" />
      <point x="123" y="412" />
      <point x="191" y="454" />
      <point x="232" y="454" type="qcurve" />
      <point x="274" y="454" />
      <point x="342" y="412" />
      <point x="382" y="342" />
      <point x="382" y="299" type="qcurve" />
      <point x="382" y="256" />
      <point x="342" y="186" />
      <point x="274" y="144" />
    </contour>
    <contour>
      <point x="232" y="174" type="qcurve" />
      <point x="264" y="174" />
      <point x="316" y="207" />
      <point x="347" y="264" />
      <point x="347" y="298" type="qcurve" />
      <point x="347" y="333" />
      <point x="316" y="389" />
      <point x="264" y="423" />
      <point x="232" y="423" type="qcurve" />
      <point x="201" y="423" />
      <point x="149" y="389" />
      <point x="118" y="333" />
      <point x="118" y="298" type="qcurve" />
      <point x="118" y="264" />
      <point x="149" y="207" />
      <point x="201" y="174" />
    </contour>
  </outline>
</glyph>
<glyph name="yen" format="2">
  <unicode hex="00A5" />
  <advance width="547" />
  <outline>
    <contour>
      <point x="97" y="168" type="line" />
      <point x="88" y="168" />
      <point x="76" y="179" />
      <point x="76" y="187" type="qcurve" />
      <point x="76" y="196" />
      <point x="88" y="207" />
      <point x="97" y="207" type="qcurve" />
      <point x="452" y="203" type="line" />
      <point x="461" y="203" />
      <point x="473" y="192" />
      <point x="473" y="183" type="qcurve" />
      <point x="473" y="175" />
      <point x="461" y="164" />
      <point x="452" y="164" type="qcurve" />
    </contour>
    <contour>
      <point x="97" y="298" type="line" />
      <point x="88" y="298" />
      <point x="76" y="309" />
      <point x="76" y="317" type="qcurve" />
      <point x="76" y="326" />
      <point x="88" y="337" />
      <point x="97" y="337" type="qcurve" />
      <point x="452" y="333" type="line" />
      <point x="461" y="333" />
      <point x="473" y="322" />
      <point x="473" y="313" type="qcurve" />
      <point x="473" y="305" />
      <point x="461" y="294" />
      <point x="452" y="294" type="qcurve" />
    </contour>
    <contour>
      <point x="507" y="704" type="qcurve" />
      <point x="517" y="704" />
      <point x="527" y="690" />
      <point x="527" y="685" type="qcurve" />
      <point x="527" y="681" />
      <point x="525" y="675" />
      <point x="523" y="672" type="qcurve" />
      <point x="286" y="350" type="line" />
      <point x="295" y="379" type="line" />
      <point x="295" y="20" type="line" />
      <point x="295" y="12" />
      <point x="283" y="0" />
      <point x="274" y="0" type="qcurve" />
      <point x="264" y="0" />
      <point x="253" y="12" />
      <point x="253" y="20" type="qcurve" />
      <point x="253" y="372" type="line" />
      <point x="258" y="351" type="line" />
      <point x="24" y="672" type="line" />
      <point x="22" y="675" />
      <point x="20" y="681" />
      <point x="20" y="685" type="qcurve" />
      <point x="20" y="690" />
      <point x="26" y="699" />
      <point x="36" y="704" />
      <point x="41" y="704" type="qcurve" />
      <point x="52" y="704" />
      <point x="58" y="695" type="qcurve" />
      <point x="280" y="392" type="line" />
      <point x="270" y="394" type="line" />
      <point x="490" y="695" type="line" />
      <point x="493" y="700" />
      <point x="502" y="704" />
    </contour>
  </outline>
</glyph>
<glyph name="brokenbar" format="2">
  <unicode hex="00A6" />
  <advance width="191" />
  <outline>
    <contour>
      <point x="116" y="390" type="line" />
      <point x="116" y="382" />
      <point x="105" y="370" />
      <point x="96" y="370" type="qcurve" />
      <point x="87" y="370" />
      <point x="76" y="382" />
      <point x="76" y="390" type="qcurve" />
      <point x="76" y="760" type="line" />
      <point x="76" y="768" />
      <point x="87" y="780" />
      <point x="96" y="780" type="qcurve" />
      <point x="105" y="780" />
      <point x="116" y="768" />
      <point x="116" y="760" type="qcurve" />
    </contour>
    <contour>
      <point x="115" y="-180" type="line" />
      <point x="115" y="-188" />
      <point x="104" y="-200" />
      <point x="95" y="-200" type="qcurve" />
      <point x="86" y="-200" />
      <point x="75" y="-188" />
      <point x="75" y="-180" type="qcurve" />
      <point x="75" y="190" type="line" />
      <point x="75" y="198" />
      <point x="86" y="210" />
      <point x="95" y="210" type="qcurve" />
      <point x="104" y="210" />
      <point x="115" y="198" />
      <point x="115" y="190" type="qcurve" />
    </contour>
  </outline>
</glyph>
<glyph name="section" format="2">
  <unicode hex="00A7" />
  <advance width="524" />
  <outline>
    <contour>
      <point x="474" y="279" type="qcurve" />
      <point x="474" y="231" />
      <point x="398" y="153" />
      <point x="327" y="145" type="qcurve" />
      <point x="324" y="158" type="line" />
      <point x="382" y="129" />
      <point x="436" y="69" />
      <point x="436" y="22" type="qcurve" />
      <point x="436" y="-20" />
      <point x="407" y="-81" />
      <point x="356" y="-120" />
      <point x="291" y="-139" />
      <point x="254" y="-139" type="qcurve" />
      <point x="209" y="-139" />
      <point x="132" y="-112" />
      <point x="75" y="-75" />
      <point x="59" y="-60" type="qcurve" />
      <point x="55" y="-56" />
      <point x="49" y="-47" />
      <point x="49" y="-41" type="qcurve" />
      <point x="49" y="-34" />
      <point x="60" y="-22" />
      <point x="68" y="-22" type="qcurve" />
      <point x="71" y="-22" />
      <point x="79" y="-24" />
      <point x="82" y="-27" type="qcurve" />
      <point x="96" y="-41" />
      <point x="145" y="-75" />
      <point x="211" y="-99" />
      <point x="252" y="-99" type="qcurve" />
      <point x="268" y="-99" />
      <point x="316" y="-92" />
      <point x="364" y="-69" />
      <point x="396" y="-20" />
      <point x="396" y="22" type="qcurve" />
      <point x="396" y="51" />
      <point x="357" y="97" />
      <point x="286" y="133" />
      <point x="236" y="148" type="qcurve" />
      <point x="159" y="171" />
      <point x="66" y="241" />
      <point x="66" y="305" type="qcurve" />
      <point x="66" y="329" />
      <point x="84" y="374" />
      <point x="119" y="412" />
      <point x="175" y="438" />
      <point x="212" y="443" type="qcurve" />
      <point x="210" y="430" type="line" />
      <point x="159" y="450" />
      <point x="108" y="520" />
      <point x="108" y="562" type="qcurve" />
      <point x="108" y="603" />
      <point x="143" y="658" />
      <point x="197" y="691" />
      <point x="257" y="705" />
      <point x="282" y="705" type="qcurve" />
      <point x="332" y="705" />
      <point x="402" y="671" />
      <point x="426" y="651" type="qcurve" />
      <point x="435" y="644" />
      <point x="435" y="636" type="qcurve" />
      <point x="435" y="629" />
      <point x="426" y="615" />
      <point x="416" y="615" type="qcurve" />
      <point x="408" y="615" />
      <point x="403" y="619" type="qcurve" />
      <point x="381" y="636" />
      <point x="323" y="665" />
      <point x="282" y="665" type="qcurve" />
      <point x="252" y="665" />
      <point x="190" y="645" />
      <point x="148" y="600" />
      <point x="148" y="562" type="qcurve" />
      <point x="148" y="529" />
      <point x="185" y="483" />
      <point x="239" y="455" />
      <point x="290" y="439" />
      <point x="304" y="435" type="qcurve" />
      <point x="383" y="411" />
      <point x="474" y="344" />
    </contour>
    <contour>
      <point x="244" y="188" type="qcurve" />
      <point x="304" y="176" type="line" />
      <point x="345" y="176" />
      <point x="403" y="207" />
      <point x="434" y="254" />
      <point x="434" y="279" type="qcurve" />
      <point x="434" y="323" />
      <point x="367" y="373" />
      <point x="296" y="395" type="qcurve" />
      <point x="224" y="410" type="line" />
      <point x="193" y="410" />
      <point x="139" y="381" />
      <point x="106" y="334" />
      <point x="106" y="307" type="qcurve" />
      <point x="106" y="267" />
      <point x="171" y="211" />
    </contour>
  </outline>
</glyph>
<glyph name="copyright" format="2">
  <unicode hex="00A9" />
  <advance width="800" />
  <outline>
    <contour>
      <point x="400" y="0" type="qcurve" />
      <point x="328" y="0" />
      <point x="201" y="52" />
      <point x="104" y="145" />
      <point x="50" y="274" />
      <point x="50" y="350" type="qcurve" />
      <point x="50" y="427" />
      <point x="104" y="555" />
      <point x="201" y="648" />
      <point x="328" y="700" />
      <point x="400" y="700" type="qcurve" />
      <point x="472" y="700" />
      <point x="599" y="648" />
      <point x="695" y="555" />
      <point x="750" y="427" />
      <point x="750" y="350" type="qcurve" />
      <point x="750" y="274" />
      <point x="695" y="145" />
      <point x="599" y="52" />
      <point x="472" y="0" />
    </contour>
    <contour>
      <point x="400" y="38" type="qcurve" />
      <point x="464" y="38" />
      <point x="576" y="84" />
      <point x="662" y="167" />
      <point x="710" y="281" />
      <point x="710" y="350" type="qcurve" />
      <point x="710" y="418" />
      <point x="662" y="532" />
      <point x="576" y="616" />
      <point x="464" y="662" />
      <point x="400" y="662" type="qcurve" />
      <point x="336" y="662" />
      <point x="224" y="616" />
      <point x="138" y="532" />
      <point x="90" y="418" />
      <point x="90" y="350" type="qcurve" />
      <point x="90" y="281" />
      <point x="138" y="167" />
      <point x="224" y="84" />
      <point x="336" y="38" />
    </contour>
    <contour>
      <point x="419" y="158" type="qcurve" />
      <point x="357" y="158" />
      <point x="269" y="210" />
      <point x="222" y="297" />
      <point x="222" y="350" type="qcurve" />
      <point x="222" y="403" />
      <point x="269" y="490" />
      <point x="357" y="541" />
      <point x="419" y="541" type="qcurve" />
      <point x="486" y="541" />
      <point x="538" y="505" type="qcurve" />
      <point x="544" y="501" />
      <point x="547" y="484" />
      <point x="542" y="477" type="qcurve" />
      <point x="538" y="470" />
      <point x="522" y="469" />
      <point x="515" y="473" type="qcurve" />
      <point x="494" y="487" />
      <point x="446" y="503" />
      <point x="419" y="503" type="qcurve" />
      <point x="369" y="503" />
      <point x="298" y="463" />
      <point x="262" y="394" />
      <point x="262" y="350" type="qcurve" />
      <point x="262" y="306" />
      <point x="298" y="236" />
      <point x="368" y="196" />
      <point x="419" y="196" type="qcurve" />
      <point x="446" y="196" />
      <point x="494" y="213" />
      <point x="516" y="226" type="qcurve" />
      <point x="522" y="230" />
      <point x="538" y="228" />
      <point x="542" y="221" type="qcurve" />
      <point x="547" y="216" />
      <point x="545" y="199" />
      <point x="538" y="193" type="qcurve" />
      <point x="513" y="177" />
      <point x="451" y="158" />
    </contour>
  </outline>
</glyph>
<glyph name="ordfeminine" format="2">
  <unicode hex="00AA" />
  <advance width="349" />
  <outline>
    <contour>
      <point x="149" y="391" type="qcurve" />
      <point x="108" y="391" />
      <point x="53" y="436" />
      <point x="25" y="510" />
      <point x="25" y="555" type="qcurve" />
      <point x="25" y="599" />
      <point x="60" y="669" />
      <point x="120" y="710" />
      <point x="157" y="710" type="qcurve" />
      <point x="206" y="710" />
      <point x="275" y="645" />
      <point x="275" y="583" type="qcurve" />
      <point x="259" y="624" type="line" />
      <point x="259" y="674" type="line" />
      <point x="259" y="682" />
      <point x="270" y="694" />
      <point x="279" y="694" type="qcurve" />
      <point x="288" y="694" />
      <point x="299" y="682" />
      <point x="299" y="674" type="qcurve" />
      <point x="299" y="421" type="line" />
      <point x="299" y="412" />
      <point x="287" y="401" />
      <point x="279" y="401" type="qcurve" />
      <point x="270" y="401" />
      <point x="259" y="413" />
      <point x="259" y="421" type="qcurve" />
      <point x="259" y="474" type="line" />
      <point x="275" y="503" type="line" />
      <point x="275" y="478" />
      <point x="241" y="426" />
      <point x="184" y="391" />
    </contour>
    <contour>
      <point x="156" y="429" type="qcurve" />
      <point x="203" y="429" />
      <point x="263" y="496" />
      <point x="263" y="555" type="qcurve" />
      <point x="263" y="611" />
      <point x="208" y="672" />
      <point x="164" y="672" type="qcurve" />
      <point x="124" y="672" />
      <point x="65" y="605" />
      <point x="65" y="555" type="qcurve" />
      <point x="65" y="503" />
      <point x="110" y="429" />
    </contour>
  </outline>
</glyph>
<glyph name="logicalnot" format="2">
  <unicode hex="00AC" />
  <advance width="639" />
  <outline>
    <contour>
      <point x="569" y="155" type="qcurve" />
      <point x="560" y="155" />
      <point x="547" y="168" />
      <point x="547" y="177" type="qcurve" />
      <point x="547" y="386" type="line" />
      <point x="563" y="378" type="line" />
      <point x="72" y="378" type="line" />
      <point x="63" y="378" />
      <point x="50" y="389" />
      <point x="50" y="398" type="qcurve" />
      <point x="50" y="406" />
      <point x="63" y="418" />
      <point x="72" y="418" type="qcurve" />
      <point x="564" y="418" type="line" />
      <point x="575" y="418" />
      <point x="589" y="404" />
      <point x="589" y="393" type="qcurve" />
      <point x="589" y="178" type="line" />
      <point x="589" y="168" />
      <point x="578" y="155" />
    </contour>
  </outline>
</glyph>
<glyph name="registered" format="2">
  <unicode hex="00AE" />
  <advance width="548" />
  <outline>
    <contour>
      <point x="216" y="363" type="qcurve" />
      <point x="209" y="363" />
      <point x="197" y="373" />
      <point x="197" y="379" type="qcurve" />
      <point x="197" y="587" type="line" />
      <point x="197" y="592" />
      <point x="206" y="602" />
      <point x="212" y="602" type="qcurve" />
      <point x="281" y="602" type="line" />
      <point x="322" y="602" />
      <point x="366" y="572" />
      <point x="366" y="536" type="qcurve" />
      <point x="366" y="508" />
      <point x="332" y="479" />
      <point x="300" y="474" type="qcurve" />
      <point x="297" y="483" type="line" />
      <point x="314" y="482" />
      <point x="347" y="446" />
      <point x="347" y="420" type="qcurve" />
      <point x="347" y="404" />
      <point x="353" y="392" />
      <point x="360" y="390" type="qcurve" />
      <point x="366" y="389" />
      <point x="370" y="383" />
      <point x="370" y="379" type="qcurve" />
      <point x="370" y="370" />
      <point x="353" y="360" />
      <point x="341" y="360" type="qcurve" />
      <point x="328" y="360" />
      <point x="308" y="389" />
      <point x="308" y="417" type="qcurve" />
      <point x="308" y="434" />
      <point x="291" y="458" />
      <point x="274" y="458" type="qcurve" />
      <point x="225" y="458" type="line" />
      <point x="235" y="468" type="line" />
      <point x="235" y="379" type="line" />
      <point x="235" y="373" />
      <point x="224" y="363" />
    </contour>
    <contour>
      <point x="276" y="494" type="line" />
      <point x="298" y="494" />
      <point x="328" y="513" />
      <point x="328" y="532" type="qcurve" />
      <point x="328" y="553" />
      <point x="303" y="566" />
      <point x="281" y="566" type="qcurve" />
      <point x="218" y="566" type="line" />
      <point x="235" y="579" type="line" />
      <point x="235" y="486" type="line" />
      <point x="224" y="494" type="line" />
    </contour>
    <contour>
      <point x="274" y="258" type="qcurve" />
      <point x="213" y="258" />
      <point x="111" y="316" />
      <point x="50" y="417" />
      <point x="50" y="482" type="qcurve" />
      <point x="50" y="547" />
      <point x="111" y="648" />
      <point x="213" y="706" />
      <point x="274" y="706" type="qcurve" />
      <point x="336" y="706" />
      <point x="437" y="648" />
      <point x="498" y="547" />
      <point x="498" y="482" type="qcurve" />
      <point x="498" y="417" />
      <point x="437" y="316" />
      <point x="336" y="258" />
    </contour>
    <contour>
      <point x="274" y="296" type="qcurve" />
      <point x="326" y="296" />
      <point x="408" y="343" />
      <point x="456" y="427" />
      <point x="456" y="482" type="qcurve" />
      <point x="456" y="538" />
      <point x="408" y="621" />
      <point x="326" y="668" />
      <point x="274" y="668" type="qcurve" />
      <point x="222" y="668" />
      <point x="139" y="621" />
      <point x="90" y="538" />
      <point x="90" y="482" type="qcurve" />
      <point x="90" y="427" />
      <point x="139" y="343" />
      <point x="222" y="296" />
    </contour>
  </outline>
</glyph>
<glyph name="degree" format="2">
  <unicode hex="00B0" />
  <advance width="312" />
  <outline>
    <contour>
      <point x="156" y="432" type="qcurve" />
      <point x="119" y="432" />
      <point x="60" y="470" />
      <point x="25" y="532" />
      <point x="25" y="568" type="qcurve" />
      <point x="25" y="606" />
      <point x="60" y="668" />
      <point x="119" y="706" />
      <point x="156" y="706" type="qcurve" />
      <point x="194" y="706" />
      <point x="253" y="668" />
      <point x="287" y="607" />
      <point x="287" y="570" type="qcurve" />
      <point x="287" y="533" />
      <point x="252" y="470" />
      <point x="193" y="432" />
    </contour>
    <contour>
      <point x="156" y="470" type="qcurve" />
      <point x="195" y="470" />
      <point x="247" y="530" />
      <point x="247" y="570" type="qcurve" />
      <point x="247" y="608" />
      <point x="195" y="668" />
      <point x="156" y="668" type="qcurve" />
      <point x="117" y="668" />
      <point x="65" y="608" />
      <point x="65" y="568" type="qcurve" />
      <point x="65" y="530" />
      <point x="117" y="470" />
    </contour>
  </outline>
</glyph>
<glyph name="plusminus" format="2">
  <unicode hex="00B1" />
  <advance width="504" />
  <outline>
    <contour>
      <point x="78" y="406" type="line" />
      <point x="69" y="406" />
      <point x="57" y="418" />
      <point x="57" y="427" type="qcurve" />
      <point x="57" y="435" />
      <point x="69" y="446" />
      <point x="78" y="446" type="qcurve" />
      <point x="420" y="446" type="line" />
      <point x="429" y="446" />
      <point x="441" y="434" />
      <point x="441" y="425" type="qcurve" />
      <point x="441" y="418" />
      <point x="429" y="406" />
      <point x="420" y="406" type="qcurve" />
    </contour>
    <contour>
      <point x="253" y="253" type="qcurve" />
      <point x="244" y="253" />
      <point x="232" y="265" />
      <point x="232" y="274" type="qcurve" />
      <point x="232" y="579" type="line" />
      <point x="232" y="589" />
      <point x="244" y="601" />
      <point x="253" y="601" type="qcurve" />
      <point x="263" y="601" />
      <point x="274" y="589" />
      <point x="274" y="580" type="qcurve" />
      <point x="274" y="275" type="line" />
      <point x="274" y="265" />
      <point x="262" y="253" />
    </contour>
    <contour>
      <point x="72" y="140" type="line" />
      <point x="62" y="140" />
      <point x="50" y="152" />
      <point x="50" y="161" type="qcurve" />
      <point x="50" y="169" />
      <point x="62" y="180" />
      <point x="71" y="180" type="qcurve" />
      <point x="433" y="180" type="line" />
      <point x="442" y="180" />
      <point x="454" y="170" />
      <point x="454" y="159" type="qcurve" />
      <point x="454" y="149" />
      <point x="442" y="140" />
      <point x="433" y="140" type="qcurve" />
    </contour>
  </outline>
</glyph>
<glyph name="uni00B5" format="2">
  <unicode hex="00B5" />
  <advance width="536" />
  <outline>
    <contour>
      <point x="100" y="-150" type="qcurve" />
      <point x="91" y="-150" />
      <point x="80" y="-138" />
      <point x="80" y="-130" type="qcurve" />
      <point x="80" y="495" type="line" />
      <point x="80" y="503" />
      <point x="92" y="515" />
      <point x="100" y="515" type="qcurve" />
      <point x="109" y="515" />
      <point x="120" y="503" />
      <point x="120" y="495" type="qcurve" />
      <point x="120" y="183" type="line" />
      <point x="120" y="141" />
      <point x="147" y="72" />
      <point x="206" y="30" />
      <point x="253" y="30" type="qcurve" />
      <point x="285" y="30" />
      <point x="346" y="57" />
      <point x="396" y="101" />
      <point x="426" y="156" />
      <point x="426" y="183" type="qcurve" />
      <point x="426" y="495" type="line" />
      <point x="426" y="503" />
      <point x="438" y="515" />
      <point x="446" y="515" type="qcurve" />
      <point x="455" y="515" />
      <point x="466" y="503" />
      <point x="466" y="495" type="qcurve" />
      <point x="466" y="20" type="line" />
      <point x="466" y="12" />
      <point x="454" y="0" />
      <point x="446" y="0" type="qcurve" />
      <point x="437" y="0" />
      <point x="426" y="12" />
      <point x="426" y="20" type="qcurve" />
      <point x="426" y="114" type="line" />
      <point x="428" y="104" type="line" />
      <point x="417" y="75" />
      <point x="364" y="23" />
      <point x="293" y="-10" />
      <point x="253" y="-10" type="qcurve" />
      <point x="220" y="-10" />
      <point x="155" y="18" />
      <point x="109" y="71" />
      <point x="104" y="109" type="qcurve" />
      <point x="120" y="89" type="line" />
      <point x="120" y="-130" type="line" />
      <point x="120" y="-138" />
      <point x="109" y="-150" />
    </contour>
  </outline>
</glyph>
<glyph name="paragraph" format="2">
  <unicode hex="00B6" />
  <advance width="620" />
  <outline>
    <contour>
      <point x="500" y="0" type="qcurve" />
      <point x="490" y="0" />
      <point x="480" y="13" />
      <point x="480" y="23" type="qcurve" />
      <point x="480" y="671" type="line" />
      <point x="499" y="660" type="line" />
      <point x="361" y="660" type="line" />
      <point x="378" y="671" type="line" />
      <point x="378" y="55" type="line" />
      <point x="378" y="24" />
      <point x="351" y="-28" />
      <point x="300" y="-59" />
      <point x="265" y="-59" type="qcurve" />
      <point x="231" y="-59" />
      <point x="182" y="-33" />
      <point x="182" y="-17" type="qcurve" />
      <point x="182" y="-9" />
      <point x="194" y="4" />
      <point x="204" y="4" type="qcurve" />
      <point x="211" y="4" />
      <point x="222" y="-2" />
      <point x="228" y="-7" type="qcurve" />
      <point x="235" y="-12" />
      <point x="252" y="-21" />
      <point x="265" y="-21" type="qcurve" />
      <point x="297" y="-21" />
      <point x="338" y="25" />
      <point x="338" y="56" type="qcurve" />
      <point x="338" y="291" type="line" />
      <point x="355" y="264" type="line" />
      <point x="313" y="264" type="line" />
      <point x="217" y="266" />
      <point x="101" y="310" />
      <point x="50" y="407" />
      <point x="50" y="487" type="qcurve" />
      <point x="50" y="571" />
      <point x="105" y="663" />
      <point x="229" y="700" />
      <point x="334" y="700" type="qcurve" />
      <point x="500" y="700" type="line" />
      <point x="508" y="700" />
      <point x="520" y="688" />
      <point x="520" y="680" type="qcurve" />
      <point x="520" y="23" type="line" />
      <point x="520" y="13" />
      <point x="510" y="0" />
    </contour>
  </outline>
</glyph>
<glyph name="periodcentered" format="2">
  <unicode hex="00B7" />
  <advance width="186" />
  <outline>
    <contour>
      <point x="91" y="255" type="line" />
      <point x="78" y="255" />
      <point x="60" y="273" />
      <point x="60" y="286" type="qcurve" />
      <point x="60" y="309" type="line" />
      <point x="60" y="323" />
      <point x="78" y="340" />
      <point x="91" y="340" type="qcurve" />
      <point x="95" y="340" type="line" />
      <point x="109" y="340" />
      <point x="126" y="323" />
      <point x="126" y="309" type="qcurve" />
      <point x="126" y="286" type="line" />
      <point x="126" y="273" />
      <point x="109" y="255" />
      <point x="95" y="255" type="qcurve" />
    </contour>
  </outline>
</glyph>
<glyph name="cedilla" format="2">
  <unicode hex="00B8" />
  <advance width="283" />
  <outline>
    <contour>
      <point x="66" y="-141" type="qcurve" />
      <point x="61" y="-141" />
      <point x="44" y="-134" />
      <point x="31" y="-121" />
      <point x="31" y="-114" type="qcurve" />
      <point x="31" y="-105" />
      <point x="36" y="-100" type="qcurve" />
      <point x="126" y="10" type="line" />
      <point x="154" y="10" type="line" />
      <point x="87" y="-126" type="line" />
      <point x="80" y="-141" />
    </contour>
  </outline>
</glyph>
<glyph name="ordmasculine" format="2">
  <unicode hex="00BA" />
  <advance width="348" />
  <outline>
    <contour>
      <point x="323" y="549" type="qcurve" />
      <point x="323" y="504" />
      <point x="284" y="433" />
      <point x="216" y="392" />
      <point x="173" y="392" type="qcurve" />
      <point x="131" y="392" />
      <point x="64" y="433" />
      <point x="25" y="504" />
      <point x="25" y="549" type="qcurve" />
      <point x="25" y="595" />
      <point x="64" y="667" />
      <point x="131" y="710" />
      <point x="173" y="710" type="qcurve" />
      <point x="216" y="710" />
      <point x="284" y="667" />
      <point x="323" y="595" />
    </contour>
    <contour>
      <point x="285" y="549" type="qcurve" />
      <point x="285" y="602" />
      <point x="224" y="672" />
      <point x="173" y="672" type="qcurve" />
      <point x="123" y="672" />
      <point x="63" y="602" />
      <point x="63" y="549" type="qcurve" />
      <point x="63" y="499" />
      <point x="123" y="429" />
      <point x="173" y="429" type="qcurve" />
      <point x="224" y="429" />
      <point x="285" y="499" />
    </contour>
  </outline>
</glyph>
<glyph name="questiondown" format="2">
  <unicode hex="00BF" />
  <advance width="459" />
  <outline>
    <contour>
      <point x="277" y="214" type="line" />
      <point x="277" y="206" />
      <point x="265" y="194" />
      <point x="257" y="194" type="qcurve" />
      <point x="210" y="191" />
      <point x="136" y="145" />
      <point x="93" y="72" />
      <point x="93" y="28" type="qcurve" />
      <point x="93" y="-22" />
      <point x="134" y="-98" />
      <point x="203" y="-140" />
      <point x="246" y="-140" type="qcurve" />
      <point x="293" y="-140" />
      <point x="372" y="-96" />
      <point x="397" y="-61" type="qcurve" />
      <point x="402" y="-54" />
      <point x="416" y="-50" />
      <point x="423" y="-54" type="qcurve" />
      <point x="432" y="-58" />
      <point x="435" y="-75" />
      <point x="430" y="-83" type="qcurve" />
      <point x="400" y="-125" />
      <point x="302" y="-178" />
      <point x="246" y="-178" type="qcurve" />
      <point x="193" y="-178" />
      <point x="103" y="-129" />
      <point x="50" y="-37" />
      <point x="50" y="28" type="qcurve" />
      <point x="50" y="65" />
      <point x="82" y="137" />
      <point x="139" y="196" />
      <point x="213" y="231" />
      <point x="256" y="231" type="qcurve" />
      <point x="260" y="231" />
      <point x="245" y="228" />
      <point x="239" y="220" type="qcurve" />
      <point x="239" y="348" type="line" />
      <point x="239" y="356" />
      <point x="250" y="368" />
      <point x="258" y="368" type="qcurve" />
      <point x="267" y="368" />
      <point x="278" y="356" />
      <point x="277" y="348" type="qcurve" />
    </contour>
    <contour>
      <point x="256" y="557" type="line" />
      <point x="270" y="557" />
      <point x="283" y="540" />
      <point x="283" y="526" type="qcurve" />
      <point x="283" y="503" type="line" />
      <point x="283" y="490" />
      <point x="270" y="472" />
      <point x="256" y="472" type="qcurve" />
      <point x="252" y="472" type="line" />
      <point x="239" y="472" />
      <point x="225" y="490" />
      <point x="225" y="503" type="qcurve" />
      <point x="225" y="526" type="line" />
      <point x="225" y="540" />
      <point x="239" y="557" />
      <point x="252" y="557" type="qcurve" />
    </contour>
  </outline>
</glyph>
<glyph name="Aring" format="2">
  <unicode hex="00C5" />
  <advance width="649" />
  <outline>
    <contour>
      <point x="325" y="741" type="qcurve" />
      <point x="299" y="741" />
      <point x="254" y="766" />
      <point x="227" y="809" />
      <point x="227" y="835" type="qcurve" />
      <point x="227" y="861" />
      <point x="254" y="904" />
      <point x="299" y="929" />
      <point x="325" y="929" type="qcurve" />
      <point x="351" y="929" />
      <point x="396" y="904" />
      <point x="423" y="861" />
      <point x="423" y="835" type="qcurve" />
      <point x="423" y="809" />
      <point x="396" y="766" />
      <point x="351" y="741" />
    </contour>
    <contour>
      <point x="325" y="773" type="qcurve" />
      <point x="351" y="773" />
      <point x="387" y="810" />
      <point x="387" y="835" type="qcurve" />
      <point x="387" y="861" />
      <point x="351" y="897" />
      <point x="325" y="897" type="qcurve" />
      <point x="300" y="897" />
      <point x="263" y="861" />
      <point x="263" y="835" type="qcurve" />
      <point x="263" y="810" />
      <point x="300" y="773" />
    </contour>
    <contour>
      <point x="327" y="649" type="line" />
      <point x="74" y="13" type="line" />
      <point x="72" y="7" />
      <point x="62" y="0" />
      <point x="56" y="0" type="qcurve" />
      <point x="46" y="0" />
      <point x="36" y="10" />
      <point x="35" y="17" type="qcurve" />
      <point x="34" y="21" />
      <point x="36" y="27" type="qcurve" />
      <point x="305" y="689" type="line" />
      <point x="308" y="697" />
      <point x="317" y="702" />
      <point x="324" y="702" type="qcurve" />
      <point x="332" y="702" />
      <point x="342" y="695" />
      <point x="344" y="689" type="qcurve" />
      <point x="613" y="27" type="line" />
      <point x="614" y="24" />
      <point x="614" y="19" type="qcurve" />
      <point x="614" y="10" />
      <point x="602" y="0" />
      <point x="593" y="0" type="qcurve" />
      <point x="586" y="0" />
      <point x="575" y="7" />
      <point x="573" y="13" type="qcurve" />
      <point x="312" y="657" type="line" />
    </contour>
    <contour>
      <point x="142" y="217" type="line" />
      <point x="156" y="257" type="line" />
      <point x="480" y="257" type="line" />
      <point x="490" y="217" type="line" />
    </contour>
  </outline>
</glyph>
<glyph name="AE" format="2">
  <unicode hex="00C6" />
  <advance width="931" />
  <outline>
    <contour>
      <point x="168" y="217" type="line" />
      <point x="491" y="217" type="line" />
      <point x="474" y="201" type="line" />
      <point x="474" y="662" type="line" />
      <point x="487" y="640" type="line" />
      <point x="45" y="8" type="line" />
      <point x="39" y="-1" />
      <point x="28" y="-1" type="qcurve" />
      <point x="21" y="-1" />
      <point x="9" y="11" />
      <point x="9" y="20" type="qcurve" />
      <point x="9" y="27" />
      <point x="12" y="31" type="qcurve" />
      <point x="474" y="691" type="line" />
      <point x="478" y="696" />
      <point x="487" y="700" />
      <point x="492" y="700" type="qcurve" />
      <point x="861" y="700" type="line" />
      <point x="869" y="700" />
      <point x="881" y="688" />
      <point x="881" y="680" type="qcurve" />
      <point x="881" y="671" />
      <point x="869" y="660" />
      <point x="861" y="660" type="qcurve" />
      <point x="507" y="660" type="line" />
      <point x="514" y="670" type="line" />
      <point x="514" y="371" type="line" />
      <point x="508" y="381" type="line" />
      <point x="816" y="381" type="line" />
      <point x="824" y="381" />
      <point x="836" y="369" />
      <point x="836" y="361" type="qcurve" />
      <point x="836" y="352" />
      <point x="824" y="341" />
      <point x="816" y="341" type="qcurve" />
      <point x="506" y="341" type="line" />
      <point x="514" y="350" type="line" />
      <point x="514" y="30" type="line" />
      <point x="508" y="40" type="line" />
      <point x="861" y="40" type="line" />
      <point x="869" y="40" />
      <point x="881" y="28" />
      <point x="881" y="20" type="qcurve" />
      <point x="881" y="11" />
      <point x="869" y="0" />
      <point x="861" y="0" type="qcurve" />
      <point x="494" y="0" type="line" />
      <point x="486" y="0" />
      <point x="474" y="12" />
      <point x="474" y="20" type="qcurve" />
      <point x="474" y="191" type="line" />
      <point x="491" y="177" type="line" />
      <point x="129" y="177" type="line" />
    </contour>
  </outline>
</glyph>
<glyph name="multiply" format="2">
  <unicode hex="00D7" />
  <advance width="450" />
  <outline>
    <contour>
      <point x="70" y="157" type="qcurve" />
      <point x="62" y="157" />
      <point x="50" y="169" />
      <point x="50" y="178" type="qcurve" />
      <point x="50" y="187" />
      <point x="56" y="193" type="qcurve" />
      <point x="364" y="498" type="line" />
      <point x="371" y="505" />
      <point x="380" y="505" type="qcurve" />
      <point x="388" y="505" />
      <point x="400" y="493" />
      <point x="400" y="484" type="qcurve" />
      <point x="400" y="477" />
      <point x="394" y="469" type="qcurve" />
      <point x="86" y="164" type="line" />
      <point x="79" y="157" />
    </contour>
    <contour>
      <point x="360" y="163" type="qcurve" />
      <point x="67" y="467" type="line" />
      <point x="61" y="475" />
      <point x="61" y="482" type="qcurve" />
      <point x="61" y="490" />
      <point x="71" y="502" />
      <point x="80" y="502" type="qcurve" />
      <point x="89" y="502" />
      <point x="96" y="495" type="qcurve" />
      <point x="388" y="192" type="line" />
      <point x="395" y="186" />
      <point x="395" y="177" type="qcurve" />
      <point x="395" y="166" />
      <point x="380" y="157" />
      <point x="375" y="157" type="qcurve" />
      <point x="368" y="157" />
    </contour>
  </outline>
</glyph>
<glyph name="Oslash" format="2">
  <unicode hex="00D8" />
  <advance width="721" />
  <outline>
    <contour>
      <point x="89" y="-20" type="qcurve" />
      <point x="82" y="-20" />
      <point x="72" y="-10" />
      <point x="72" y="-3" type="qcurve" />
      <point x="72" y="3" />
      <point x="77" y="10" type="qcurve" />
      <point x="657" y="707" type="line" />
      <point x="663" y="715" />
      <point x="672" y="718" />
      <point x="679" y="718" type="qcurve" />
      <point x="685" y="718" />
      <point x="696" y="710" />
      <point x="696" y="702" type="qcurve" />
      <point x="696" y="694" />
      <point x="690" y="687" type="qcurve" />
      <point x="114" y="-4" type="line" />
      <point x="110" y="-10" />
      <point x="99" y="-20" />
    </contour>
    <contour>
      <point x="718" y="350" type="qcurve" />
      <point x="718" y="270" />
      <point x="669" y="138" />
      <point x="579" y="42" />
      <point x="457" y="-10" />
      <point x="384" y="-10" type="qcurve" />
      <point x="311" y="-10" />
      <point x="189" y="42" />
      <point x="99" y="138" />
      <point x="50" y="270" />
      <point x="50" y="350" type="qcurve" />
      <point x="50" y="430" />
      <point x="99" y="562" />
      <point x="189" y="658" />
      <point x="311" y="710" />
      <point x="384" y="710" type="qcurve" />
      <point x="457" y="710" />
      <point x="579" y="658" />
      <point x="669" y="562" />
      <point x="718" y="430" />
    </contour>
    <contour>
      <point x="676" y="350" type="qcurve" />
      <point x="676" y="446" />
      <point x="601" y="590" />
      <point x="470" y="670" />
      <point x="384" y="670" type="qcurve" />
      <point x="299" y="670" />
      <point x="167" y="590" />
      <point x="92" y="446" />
      <point x="92" y="350" type="qcurve" />
      <point x="92" y="254" />
      <point x="167" y="110" />
      <point x="299" y="30" />
      <point x="384" y="30" type="qcurve" />
      <point x="470" y="30" />
      <point x="601" y="110" />
      <point x="676" y="254" />
    </contour>
  </outline>
</glyph>
<glyph name="Thorn" format="2">
  <unicode hex="00DE" />
  <advance width="583" />
  <outline>
    <contour>
      <point x="140" y="20" type="line" />
      <point x="140" y="12" />
      <point x="128" y="0" />
      <point x="120" y="0" type="qcurve" />
      <point x="111" y="0" />
      <point x="100" y="12" />
      <point x="100" y="20" type="qcurve" />
      <point x="100" y="720" type="line" />
      <point x="100" y="728" />
      <point x="112" y="740" />
      <point x="120" y="740" type="qcurve" />
      <point x="129" y="740" />
      <point x="140" y="728" />
      <point x="140" y="720" type="qcurve" />
    </contour>
    <contour>
      <point x="127" y="238" type="line" />
      <point x="349" y="238" type="line" />
      <point x="395" y="238" />
      <point x="460" y="279" />
      <point x="496" y="351" />
      <point x="496" y="396" type="qcurve" />
      <point x="496" y="442" />
      <point x="460" y="509" />
      <point x="395" y="547" />
      <point x="349" y="547" type="qcurve" />
      <point x="128" y="547" type="line" />
      <point x="109" y="587" type="line" />
      <point x="349" y="587" type="line" />
      <point x="406" y="587" />
      <point x="491" y="539" />
      <point x="538" y="453" />
      <point x="538" y="396" type="qcurve" />
      <point x="538" y="340" />
      <point x="491" y="250" />
      <point x="406" y="198" />
      <point x="349" y="198" type="qcurve" />
      <point x="127" y="198" type="line" />
    </contour>
  </outline>
</glyph>
<glyph name="germandbls" format="2">
  <unicode hex="00DF" />
  <advance width="586" />
  <outline>
    <contour>
      <point x="118" y="0" type="qcurve" />
      <point x="108" y="0" />
      <point x="98" y="10" />
      <point x="98" y="20" type="qcurve" />
      <point x="100" y="493" type="line" />
      <point x="100" y="528" />
      <point x="119" y="609" />
      <point x="164" y="681" />
      <point x="239" y="726" />
      <point x="294" y="726" type="qcurve" />
      <point x="349" y="726" />
      <point x="419" y="687" />
      <point x="453" y="626" />
      <point x="453" y="591" type="qcurve" />
      <point x="453" y="576" />
      <point x="437" y="527" />
      <point x="399" y="482" />
      <point x="367" y="471" type="qcurve" />
      <point x="367" y="475" type="line" />
      <point x="416" y="461" />
      <point x="493" y="395" />
      <point x="538" y="299" />
      <point x="538" y="237" type="qcurve" />
      <point x="538" y="165" />
      <point x="478" y="54" />
      <point x="378" y="-10" />
      <point x="319" y="-10" type="qcurve" />
      <point x="297" y="-10" />
      <point x="251" y="-4" />
      <point x="235" y="6" type="qcurve" />
      <point x="226" y="11" />
      <point x="220" y="26" />
      <point x="225" y="34" type="qcurve" />
      <point x="230" y="43" />
      <point x="246" y="46" />
      <point x="255" y="40" type="qcurve" />
      <point x="268" y="33" />
      <point x="300" y="25" />
      <point x="319" y="25" type="qcurve" />
      <point x="363" y="25" />
      <point x="445" y="76" />
      <point x="498" y="170" />
      <point x="498" y="232" type="qcurve" />
      <point x="498" y="302" />
      <point x="444" y="390" />
      <point x="363" y="438" />
      <point x="323" y="447" type="qcurve" />
      <point x="313" y="449" />
      <point x="302" y="464" />
      <point x="302" y="471" type="qcurve" />
      <point x="302" y="477" />
      <point x="311" y="489" />
      <point x="319" y="491" type="qcurve" />
      <point x="354" y="498" />
      <point x="395" y="533" />
      <point x="413" y="574" />
      <point x="413" y="589" type="qcurve" />
      <point x="413" y="627" />
      <point x="351" y="686" />
      <point x="294" y="686" type="qcurve" />
      <point x="250" y="686" />
      <point x="190" y="650" />
      <point x="155" y="592" />
      <point x="140" y="525" />
      <point x="140" y="493" type="qcurve" />
      <point x="138" y="20" type="line" />
      <point x="138" y="10" />
      <point x="128" y="0" />
    </contour>
    <contour>
      <point x="47" y="465" type="line" />
      <point x="40" y="465" />
      <point x="28" y="477" />
      <point x="28" y="484" type="qcurve" />
      <point x="28" y="492" />
      <point x="40" y="503" />
      <point x="47" y="503" type="qcurve" />
      <point x="108" y="503" type="line" />
      <point x="116" y="503" />
      <point x="127" y="491" />
      <point x="127" y="484" type="qcurve" />
      <point x="127" y="476" />
      <point x="116" y="465" />
      <point x="108" y="465" type="qcurve" />
    </contour>
  </outline>
</glyph>
<glyph name="ae" format="2">
  <unicode hex="00E6" />
  <advance width="895" />
  <outline>
    <contour>
      <point x="270" y="515" type="qcurve" />
      <point x="302" y="515" />
      <point x="359" y="502" />
      <point x="404" y="473" />
      <point x="430" y="424" />
      <point x="430" y="388" type="qcurve" />
      <point x="430" y="252" type="line" />
      <point x="394" y="251" type="line" />
      <point x="394" y="370" type="line" />
      <point x="394" y="414" />
      <point x="356" y="460" />
      <point x="299" y="477" />
      <point x="270" y="477" type="qcurve" />
      <point x="237" y="477" />
      <point x="170" y="449" />
      <point x="115" y="407" />
      <point x="100" y="384" type="qcurve" />
      <point x="93" y="375" />
      <point x="83" y="375" type="qcurve" />
      <point x="76" y="375" />
      <point x="66" y="386" />
      <point x="66" y="393" type="qcurve" />
      <point x="66" y="396" />
      <point x="68" y="402" />
      <point x="70" y="405" type="qcurve" />
      <point x="91" y="432" />
      <point x="154" y="483" />
      <point x="231" y="515" />
    </contour>
    <contour>
      <point x="202" y="-10" type="qcurve" />
      <point x="167" y="-10" />
      <point x="98" y="23" />
      <point x="52" y="88" />
      <point x="52" y="136" type="qcurve" />
      <point x="52" y="193" />
      <point x="127" y="267" />
      <point x="259" y="304" />
      <point x="344" y="304" type="qcurve" />
      <point x="812" y="304" type="line" />
      <point x="802" y="295" type="line" />
      <point x="802" y="313" type="line" />
      <point x="797" y="366" />
      <point x="740" y="438" />
      <point x="660" y="475" />
      <point x="617" y="475" type="qcurve" />
      <point x="587" y="475" />
      <point x="521" y="448" />
      <point x="465" y="393" />
      <point x="430" y="309" />
      <point x="430" y="253" type="qcurve" />
      <point x="430" y="192" />
      <point x="479" y="90" />
      <point x="576" y="28" />
      <point x="647" y="28" type="qcurve" />
      <point x="681" y="28" />
      <point x="741" y="51" />
      <point x="789" y="89" />
      <point x="804" y="111" type="qcurve" />
      <point x="812" y="120" />
      <point x="821" y="120" type="qcurve" />
      <point x="828" y="120" />
      <point x="838" y="109" />
      <point x="838" y="102" type="qcurve" />
      <point x="838" y="95" />
      <point x="834" y="90" type="qcurve" />
      <point x="803" y="50" />
      <point x="706" y="-10" />
      <point x="647" y="-10" type="qcurve" />
      <point x="572" y="-10" />
      <point x="456" y="54" />
      <point x="391" y="171" />
      <point x="391" y="250" type="qcurve" />
      <point x="391" y="334" />
      <point x="456" y="452" />
      <point x="559" y="515" />
      <point x="617" y="515" type="qcurve" />
      <point x="659" y="515" />
      <point x="739" y="488" />
      <point x="802" y="431" />
      <point x="841" y="346" />
      <point x="843" y="287" type="qcurve" />
      <point x="843" y="279" />
      <point x="831" y="266" />
      <point x="823" y="266" type="qcurve" />
      <point x="346" y="266" type="line" />
      <point x="272" y="266" />
      <point x="157" y="238" />
      <point x="92" y="180" />
      <point x="92" y="136" type="qcurve" />
      <point x="92" y="100" />
      <point x="128" y="52" />
      <point x="181" y="28" />
      <point x="206" y="28" type="qcurve" />
      <point x="250" y="28" />
      <point x="333" y="71" />
      <point x="396" y="132" />
      <point x="408" y="157" type="qcurve" />
      <point x="430" y="125" type="line" />
      <point x="412" y="98" />
      <point x="351" y="35" />
      <point x="263" y="-10" />
    </contour>
  </outline>
</glyph>
<glyph name="eth" format="2">
  <unicode hex="00F0" />
  <advance width="569" />
  <outline>
    <contour>
      <point x="284" y="-1" type="qcurve" />
      <point x="220" y="-1" />
      <point x="114" y="71" />
      <point x="52" y="190" />
      <point x="52" y="261" type="qcurve" />
      <point x="52" y="314" />
      <point x="88" y="405" />
      <point x="151" y="474" />
      <point x="236" y="513" />
      <point x="284" y="513" type="qcurve" />
      <point x="337" y="513" />
      <point x="415" y="468" />
      <point x="467" y="399" />
      <point x="481" y="362" type="qcurve" />
      <point x="464" y="368" type="line" />
      <point x="454" y="423" />
      <point x="412" y="531" />
      <point x="346" y="623" />
      <point x="251" y="688" />
      <point x="187" y="700" type="qcurve" />
      <point x="180" y="702" />
      <point x="171" y="711" />
      <point x="171" y="718" type="qcurve" />
      <point x="171" y="729" />
      <point x="180" y="740" />
      <point x="189" y="740" type="qcurve" />
      <point x="194" y="740" />
      <point x="196" y="739" type="qcurve" />
      <point x="270" y="724" />
      <point x="379" y="646" />
      <point x="453" y="540" />
      <point x="497" y="427" />
      <point x="517" y="322" />
      <point x="517" y="285" type="qcurve" />
      <point x="517" y="202" />
      <point x="454" y="72" />
      <point x="349" y="-1" />
    </contour>
    <contour>
      <point x="284" y="37" type="qcurve" />
      <point x="337" y="37" />
      <point x="424" y="99" />
      <point x="476" y="201" />
      <point x="476" y="261" type="qcurve" />
      <point x="476" y="316" />
      <point x="425" y="414" />
      <point x="338" y="475" />
      <point x="284" y="475" type="qcurve" />
      <point x="231" y="475" />
      <point x="143" y="418" />
      <point x="92" y="321" />
      <point x="92" y="261" type="qcurve" />
      <point x="92" y="201" />
      <point x="144" y="99" />
      <point x="232" y="37" />
    </contour>
    <contour>
      <point x="235" y="553" type="line" />
      <point x="227" y="550" />
      <point x="212" y="556" />
      <point x="209" y="564" type="qcurve" />
      <point x="206" y="572" />
      <point x="213" y="587" />
      <point x="221" y="590" type="qcurve" />
      <point x="327" y="631" type="line" />
      <point x="362" y="644" type="line" />
      <point x="458" y="682" type="line" />
      <point x="466" y="686" />
      <point x="481" y="679" />
      <point x="484" y="671" type="qcurve" />
      <point x="487" y="663" />
      <point x="480" y="648" />
      <point x="472" y="645" type="qcurve" />
      <point x="390" y="613" type="line" />
      <point x="358" y="601" type="line" />
    </contour>
  </outline>
</glyph>
<glyph name="divide" format="2">
  <unicode hex="00F7" />
  <advance width="544" />
  <outline>
    <contour>
      <point x="233" y="501" type="qcurve" />
      <point x="233" y="516" />
      <point x="253" y="537" />
      <point x="267" y="537" type="qcurve" />
      <point x="281" y="537" />
      <point x="302" y="516" />
      <point x="302" y="501" type="qcurve" />
      <point x="302" y="487" />
      <point x="281" y="467" />
      <point x="267" y="467" type="qcurve" />
      <point x="253" y="467" />
      <point x="233" y="487" />
    </contour>
    <contour>
      <point x="233" y="160" type="qcurve" />
      <point x="233" y="174" />
      <point x="253" y="195" />
      <point x="267" y="195" type="qcurve" />
      <point x="281" y="195" />
      <point x="302" y="174" />
      <point x="302" y="160" type="qcurve" />
      <point x="302" y="146" />
      <point x="281" y="126" />
      <point x="267" y="126" type="qcurve" />
      <point x="253" y="126" />
      <point x="233" y="146" />
    </contour>
    <contour>
      <point x="71" y="313" type="line" />
      <point x="62" y="313" />
      <point x="50" y="325" />
      <point x="50" y="334" type="qcurve" />
      <point x="50" y="342" />
      <point x="62" y="353" />
      <point x="71" y="353" type="qcurve" />
      <point x="473" y="353" type="line" />
      <point x="482" y="353" />
      <point x="494" y="341" />
      <point x="494" y="332" type="qcurve" />
      <point x="494" y="325" />
      <point x="482" y="313" />
      <point x="473" y="313" type="qcurve" />
    </contour>
  </outline>
</glyph>
<glyph name="oslash" format="2">
  <unicode hex="00F8" />
  <advance width="597" />
  <outline>
    <contour>
      <point x="78" y="-30" type="qcurve" />
      <point x="71" y="-30" />
      <point x="58" y="-18" />
      <point x="58" y="-10" type="qcurve" />
      <point x="58" y="-2" />
      <point x="63" y="4" type="qcurve" />
      <point x="510" y="526" type="line" />
      <point x="516" y="534" />
      <point x="525" y="534" type="qcurve" />
      <point x="533" y="534" />
      <point x="545" y="522" />
      <point x="545" y="514" type="qcurve" />
      <point x="545" y="505" />
      <point x="540" y="500" type="qcurve" />
      <point x="93" y="-22" type="line" />
      <point x="87" y="-30" />
    </contour>
    <contour>
      <point x="545" y="252" type="qcurve" />
      <point x="545" y="178" />
      <point x="481" y="59" />
      <point x="370" y="-10" />
      <point x="299" y="-10" type="qcurve" />
      <point x="229" y="-10" />
      <point x="117" y="59" />
      <point x="52" y="178" />
      <point x="52" y="252" type="qcurve" />
      <point x="52" y="327" />
      <point x="117" y="446" />
      <point x="229" y="515" />
      <point x="299" y="515" type="qcurve" />
      <point x="370" y="515" />
      <point x="481" y="446" />
      <point x="545" y="327" />
    </contour>
    <contour>
      <point x="505" y="252" type="qcurve" />
      <point x="505" y="317" />
      <point x="452" y="418" />
      <point x="359" y="477" />
      <point x="299" y="477" type="qcurve" />
      <point x="240" y="477" />
      <point x="146" y="418" />
      <point x="92" y="317" />
      <point x="92" y="252" type="qcurve" />
      <point x="92" y="188" />
      <point x="146" y="87" />
      <point x="240" y="28" />
      <point x="299" y="28" type="qcurve" />
      <point x="359" y="28" />
      <point x="452" y="87" />
      <point x="505" y="188" />
    </contour>
  </outline>
</glyph>
<glyph name="Aogonek" format="2">
  <unicode hex="0104" />
  <advance width="649" />
  <outline>
    <contour>
      <point x="574" y="-185" type="qcurve" />
      <point x="541" y="-185" />
      <point x="486" y="-135" />
      <point x="486" y="-93" type="qcurve" />
      <point x="486" y="-70" />
      <point x="501" y="-32" />
      <point x="526" y="-2" />
      <point x="556" y="18" />
      <point x="572" y="23" type="qcurve" />
      <point x="582" y="20" type="line" />
      <point x="573" y="13" type="line" />
      <point x="312" y="657" type="line" />
      <point x="327" y="649" type="line" />
      <point x="74" y="13" type="line" />
      <point x="72" y="7" />
      <point x="62" y="0" />
      <point x="56" y="0" type="qcurve" />
      <point x="46" y="0" />
      <point x="36" y="10" />
      <point x="35" y="17" type="qcurve" />
      <point x="34" y="21" />
      <point x="36" y="27" type="qcurve" />
      <point x="305" y="689" type="line" />
      <point x="308" y="697" />
      <point x="317" y="702" />
      <point x="324" y="702" type="qcurve" />
      <point x="332" y="702" />
      <point x="342" y="695" />
      <point x="344" y="689" type="qcurve" />
      <point x="613" y="27" type="line" />
      <point x="615" y="21" />
      <point x="615" y="18" type="qcurve" />
      <point x="615" y="9" />
      <point x="604" y="2" />
      <point x="595" y="0" type="qcurve" />
      <point x="568" y="-5" />
      <point x="524" y="-56" />
      <point x="524" y="-85" type="qcurve" />
      <point x="524" y="-115" />
      <point x="558" y="-148" />
      <point x="579" y="-148" type="qcurve" />
      <point x="604" y="-148" />
      <point x="611" y="-136" type="qcurve" />
      <point x="615" y="-130" />
      <point x="623" y="-122" />
      <point x="630" y="-122" type="qcurve" />
      <point x="637" y="-122" />
      <point x="646" y="-131" />
      <point x="646" y="-136" type="qcurve" />
      <point x="646" y="-149" />
      <point x="625" y="-172" />
      <point x="592" y="-185" />
    </contour>
    <contour>
      <point x="142" y="217" type="line" />
      <point x="156" y="257" type="line" />
      <point x="480" y="257" type="line" />
      <point x="490" y="217" type="line" />
    </contour>
  </outline>
</glyph>
